<svg width="52" height="52" viewBox="0 0 52 52" fill="none" xmlns="http://www.w3.org/2000/svg">
<g filter="url(#filter0_d_8723_151563)">
<path d="M2.5 11C2.5 5.75329 6.75329 1.5 12 1.5H40C45.2467 1.5 49.5 5.75329 49.5 11V39C49.5 44.2467 45.2467 48.5 40 48.5H12C6.75329 48.5 2.5 44.2467 2.5 39V11Z" stroke="#333741" shape-rendering="crispEdges"/>
<path d="M19 22V30M23.5 22V30M28.5 22V30M33 22V30M17 31.6L17 32.4C17 32.96 17 33.2401 17.109 33.454C17.2049 33.6421 17.3578 33.7951 17.546 33.891C17.7599 34 18.0399 34 18.6 34H33.4C33.9601 34 34.2401 34 34.454 33.891C34.6422 33.7951 34.7951 33.6421 34.891 33.454C35 33.2401 35 32.96 35 32.4V31.6C35 31.0399 35 30.7599 34.891 30.546C34.7951 30.3578 34.6422 30.2049 34.454 30.109C34.2401 30 33.9601 30 33.4 30H18.6C18.0399 30 17.7599 30 17.546 30.109C17.3578 30.2049 17.2049 30.3578 17.109 30.546C17 30.7599 17 31.0399 17 31.6ZM25.6529 16.0771L18.2529 17.7216C17.8059 17.8209 17.5823 17.8706 17.4155 17.9908C17.2683 18.0968 17.1527 18.2409 17.0811 18.4076C17 18.5965 17 18.8255 17 19.2835L17 20.4C17 20.96 17 21.2401 17.109 21.454C17.2049 21.6421 17.3578 21.7951 17.546 21.891C17.7599 22 18.0399 22 18.6 22H33.4C33.9601 22 34.2401 22 34.454 21.891C34.6422 21.7951 34.7951 21.6421 34.891 21.454C35 21.2401 35 20.96 35 20.4V19.2835C35 18.8255 35 18.5965 34.9188 18.4076C34.8473 18.2409 34.7317 18.0968 34.5845 17.9908C34.4177 17.8706 34.1942 17.8209 33.7471 17.7216L26.3471 16.0771C26.2176 16.0483 26.1528 16.0339 26.0874 16.0282C26.0292 16.0231 25.9708 16.0231 25.9126 16.0282C25.8472 16.0339 25.7824 16.0483 25.6529 16.0771Z" stroke="#CECFD2" stroke-width="2" stroke-linecap="round" stroke-linejoin="round"/>
</g>
<defs>
<filter id="filter0_d_8723_151563" x="0" y="0" width="52" height="52" filterUnits="userSpaceOnUse" color-interpolation-filters="sRGB">
<feFlood flood-opacity="0" result="BackgroundImageFix"/>
<feColorMatrix in="SourceAlpha" type="matrix" values="0 0 0 0 0 0 0 0 0 0 0 0 0 0 0 0 0 0 127 0" result="hardAlpha"/>
<feOffset dy="1"/>
<feGaussianBlur stdDeviation="1"/>
<feComposite in2="hardAlpha" operator="out"/>
<feColorMatrix type="matrix" values="0 0 0 0 0.0627451 0 0 0 0 0.0941176 0 0 0 0 0.156863 0 0 0 0.05 0"/>
<feBlend mode="normal" in2="BackgroundImageFix" result="effect1_dropShadow_8723_151563"/>
<feBlend mode="normal" in="SourceGraphic" in2="effect1_dropShadow_8723_151563" result="shape"/>
</filter>
</defs>
</svg>
