<svg width="52" height="52" viewBox="0 0 52 52" fill="none" xmlns="http://www.w3.org/2000/svg">
<g filter="url(#filter0_d_8723_151585)">
<path d="M2.5 11C2.5 5.75329 6.75329 1.5 12 1.5H40C45.2467 1.5 49.5 5.75329 49.5 11V39C49.5 44.2467 45.2467 48.5 40 48.5H12C6.75329 48.5 2.5 44.2467 2.5 39V11Z" stroke="#333741" shape-rendering="crispEdges"/>
<path d="M36 23.5L35.5256 19.7046C35.3395 18.216 35.2465 17.4717 34.8961 16.9108C34.5875 16.4166 34.1416 16.023 33.613 15.778C33.013 15.5 32.2629 15.5 30.7626 15.5H21.2374C19.7371 15.5 18.987 15.5 18.387 15.778C17.8584 16.023 17.4125 16.4166 17.1039 16.9108C16.7535 17.4717 16.6605 18.216 16.4744 19.7046L16 23.5M19.5 27.5H32.5M19.5 27.5C17.567 27.5 16 25.933 16 24C16 22.067 17.567 20.5 19.5 20.5H32.5C34.433 20.5 36 22.067 36 24C36 25.933 34.433 27.5 32.5 27.5M19.5 27.5C17.567 27.5 16 29.067 16 31C16 32.933 17.567 34.5 19.5 34.5H32.5C34.433 34.5 36 32.933 36 31C36 29.067 34.433 27.5 32.5 27.5M20 24H20.01M20 31H20.01M26 24H32M26 31H32" stroke="#CECFD2" stroke-width="2" stroke-linecap="round" stroke-linejoin="round"/>
</g>
<defs>
<filter id="filter0_d_8723_151585" x="0" y="0" width="52" height="52" filterUnits="userSpaceOnUse" color-interpolation-filters="sRGB">
<feFlood flood-opacity="0" result="BackgroundImageFix"/>
<feColorMatrix in="SourceAlpha" type="matrix" values="0 0 0 0 0 0 0 0 0 0 0 0 0 0 0 0 0 0 127 0" result="hardAlpha"/>
<feOffset dy="1"/>
<feGaussianBlur stdDeviation="1"/>
<feComposite in2="hardAlpha" operator="out"/>
<feColorMatrix type="matrix" values="0 0 0 0 0.0627451 0 0 0 0 0.0941176 0 0 0 0 0.156863 0 0 0 0.05 0"/>
<feBlend mode="normal" in2="BackgroundImageFix" result="effect1_dropShadow_8723_151585"/>
<feBlend mode="normal" in="SourceGraphic" in2="effect1_dropShadow_8723_151585" result="shape"/>
</filter>
</defs>
</svg>
