<svg width="56" height="56" viewBox="0 0 56 56" fill="none" xmlns="http://www.w3.org/2000/svg">
<circle cx="28" cy="28" r="24.5" fill="#1794D4"/>
<path d="M31.5 12.25H28V15.75H31.5V12.25Z" fill="white"/>
<path d="M17.5 17.5H21V21H17.5V17.5Z" fill="white"/>
<path d="M10.5027 29.6475C10.8018 34.7247 13.8255 42 24.5 42C36.4 42 41.7083 33.25 42.875 28.875C44.3333 28.875 47.6 28 49 24.5C48.125 23.625 44.625 23.625 42.875 24.5C42.875 23.1 42 20.125 40.25 19.25C39.0833 20.4167 37.275 23.45 39.375 26.25C38.5 28 36.1668 28 35.0001 28H12.1501C11.2235 28 10.4482 28.7225 10.5027 29.6475Z" fill="white"/>
<path d="M15.75 22.75H12.25V26.25H15.75V22.75Z" fill="white"/>
<path d="M17.5 22.75H21V26.25H17.5V22.75Z" fill="white"/>
<path d="M26.25 22.75H22.75V26.25H26.25V22.75Z" fill="white"/>
<path d="M28 22.75H31.5V26.25H28V22.75Z" fill="white"/>
<path d="M36.75 22.75H33.25V26.25H36.75V22.75Z" fill="white"/>
<path d="M26.25 17.5H22.75V21H26.25V17.5Z" fill="white"/>
<path d="M28 17.5H31.5V21H28V17.5Z" fill="white"/>
</svg>
