<svg width="103" height="33" viewBox="0 0 103 33" fill="none" xmlns="http://www.w3.org/2000/svg">
<path d="M2.06885 5.3617H5.53053H11.0344V2.55566H2.06885V5.3617Z" fill="white"/>
<path d="M2.06885 5.3617H5.53053H11.0344V2.55566H2.06885V5.3617Z" fill="white"/>
<path d="M2.06885 15.3852H5.53053V10.3744H10.4865V7.56836H5.53053H2.06885V15.3852Z" fill="white"/>
<path d="M2.06885 15.3852H5.53053V10.3744H10.4865V7.56836H5.53053H2.06885V15.3852Z" fill="white"/>
<path d="M16.8653 2.55078V15.3909H13.3794V2.55078H16.8653Z" fill="white"/>
<path d="M29.6302 2.55078V15.3909H26.7211L22.0816 8.64483H22.0064V15.3909H18.5205V2.55078H21.4798L26.044 9.27178H26.1443V2.55078H29.6302Z" fill="white"/>
<path d="M35.0469 15.3909H31.2852L35.5234 2.55078H40.2883L44.5265 15.3909H40.7648L37.956 6.08683H37.8557L35.0469 15.3909ZM34.3447 10.3251H41.4168V12.9332H34.3447V10.3251Z" fill="white"/>
<path d="M57.2914 2.55078V15.3909H54.3823L49.7428 8.64483H49.6675V15.3909H46.1816V2.55078H49.1409L53.7052 9.27178H53.8055V2.55078H57.2914Z" fill="white"/>
<path d="M70.9844 7.3656H67.4483C67.4233 7.07301 67.3564 6.8076 67.2477 6.56936C67.1432 6.33111 66.9969 6.12631 66.8088 5.95494C66.6249 5.77939 66.4013 5.64564 66.138 5.55368C65.8747 5.45755 65.5758 5.40948 65.2414 5.40948C64.6563 5.40948 64.161 5.55159 63.7556 5.83582C63.3543 6.12004 63.0492 6.52756 62.8402 7.05839C62.6354 7.58921 62.533 8.22662 62.533 8.97061C62.533 9.7564 62.6375 10.4147 62.8465 10.9455C63.0596 11.4722 63.3668 11.8693 63.7681 12.1368C64.1693 12.4001 64.6521 12.5317 65.2164 12.5317C65.5382 12.5317 65.8266 12.492 66.0816 12.4126C66.3365 12.329 66.5581 12.2099 66.7462 12.0553C66.9342 11.9006 67.0868 11.7146 67.2038 11.4973C67.325 11.2757 67.4065 11.027 67.4483 10.7512L70.9844 10.7763C70.9426 11.3196 70.79 11.8734 70.5267 12.4377C70.2634 12.9978 69.8893 13.5161 69.4045 13.9926C68.9238 14.4649 68.3282 14.8452 67.6176 15.1336C66.9071 15.422 66.0816 15.5662 65.1411 15.5662C63.9625 15.5662 62.905 15.3133 61.9687 14.8076C61.0366 14.3019 60.2989 13.5579 59.7556 12.5756C59.2164 11.5934 58.9468 10.3917 58.9468 8.97061C58.9468 7.54114 59.2226 6.33738 59.7744 5.35933C60.3261 4.37709 61.0701 3.63519 62.0063 3.13362C62.9426 2.62787 63.9875 2.375 65.1411 2.375C65.952 2.375 66.6981 2.48576 67.3794 2.70729C68.0607 2.92881 68.6584 3.25274 69.1725 3.67908C69.6866 4.10123 70.1004 4.6216 70.4139 5.2402C70.7273 5.8588 70.9175 6.56727 70.9844 7.3656Z" fill="white"/>
<path d="M76.1255 2.55078V15.3909H72.6396V2.55078H76.1255Z" fill="white"/>
<path d="M81.5425 15.3909H77.7808L82.019 2.55078H86.7839L91.0221 15.3909H87.2604L84.4516 6.08683H84.3513L81.5425 15.3909ZM80.8403 10.3251H87.9124V12.9332H80.8403V10.3251Z" fill="white"/>
<path d="M92.6772 15.3909V2.55078H96.1631V12.5821H101.354V15.3909H92.6772Z" fill="white"/>
<path d="M1.44824 21.3617H4.90993H10.4138V18.5557H1.44824V21.3617Z" fill="white"/>
<path d="M1.44824 21.3617H4.90993H10.4138V18.5557H1.44824V21.3617Z" fill="white"/>
<path d="M1.44824 31.3852H4.90993V26.3744H9.86587V23.5684H4.90993H1.44824V31.3852Z" fill="white"/>
<path d="M1.44824 31.3852H4.90993V26.3744H9.86587V23.5684H4.90993H1.44824V31.3852Z" fill="white"/>
<path d="M12.1382 31.3909V18.5508H17.6805C18.6335 18.5508 19.4673 18.7242 20.1821 19.0712C20.8968 19.4181 21.4527 19.9176 21.8498 20.5696C22.2469 21.2216 22.4454 22.0032 22.4454 22.9144C22.4454 23.834 22.2406 24.6093 21.831 25.2404C21.4255 25.8716 20.855 26.3481 20.1194 26.6699C19.3879 26.9917 18.5332 27.1527 17.5551 27.1527H14.2448V24.4442H16.8529C17.2625 24.4442 17.6115 24.394 17.8999 24.2937C18.1925 24.1892 18.4161 24.0241 18.5708 23.7984C18.7296 23.5727 18.809 23.2781 18.809 22.9144C18.809 22.5466 18.7296 22.2478 18.5708 22.0179C18.4161 21.7838 18.1925 21.6124 17.8999 21.5038C17.6115 21.3909 17.2625 21.3345 16.8529 21.3345H15.6241V31.3909H12.1382ZM19.6617 25.4975L22.8717 31.3909H19.0849L15.9501 25.4975H19.6617Z" fill="white"/>
<path d="M24.5269 31.3909V18.5508H33.7808V21.3596H28.0127V23.5665H33.3043V26.3752H28.0127V28.5821H33.7557V31.3909H24.5269Z" fill="white"/>
<path d="M35.436 31.3909V18.5508H44.69V21.3596H38.9219V23.5665H44.2135V26.3752H38.9219V28.5821H44.6649V31.3909H35.436Z" fill="white"/>
<path d="M51.2857 31.3909H46.3452V18.5508H51.2355C52.5563 18.5508 53.6974 18.8078 54.6587 19.3219C55.6242 19.8319 56.3682 20.5675 56.8907 21.5288C57.4173 22.486 57.6806 23.6333 57.6806 24.9708C57.6806 26.3084 57.4194 27.4578 56.8969 28.4191C56.3745 29.3763 55.6347 30.1119 54.6775 30.626C53.7203 31.1359 52.5897 31.3909 51.2857 31.3909ZM49.8311 28.4317H51.1603C51.7956 28.4317 52.3369 28.3293 52.7841 28.1244C53.2355 27.9196 53.5782 27.5665 53.8123 27.0649C54.0505 26.5633 54.1697 25.8653 54.1697 24.9708C54.1697 24.0764 54.0485 23.3784 53.806 22.8768C53.5678 22.3752 53.2167 22.022 52.7527 21.8172C52.293 21.6124 51.7287 21.51 51.0599 21.51H49.8311V28.4317Z" fill="white"/>
<path d="M71.8245 24.9706C71.8245 26.4001 71.5465 27.6059 70.9906 28.5882C70.4347 29.5662 69.6845 30.3081 68.7398 30.8139C67.7952 31.3154 66.7419 31.5662 65.58 31.5662C64.4096 31.5662 63.3522 31.3133 62.4075 30.8076C61.4671 30.2977 60.7189 29.5537 60.163 28.5756C59.6113 27.5934 59.3354 26.3917 59.3354 24.9706C59.3354 23.5411 59.6113 22.3374 60.163 21.3593C60.7189 20.3771 61.4671 19.6352 62.4075 19.1336C63.3522 18.6279 64.4096 18.375 65.58 18.375C66.7419 18.375 67.7952 18.6279 68.7398 19.1336C69.6845 19.6352 70.4347 20.3771 70.9906 21.3593C71.5465 22.3374 71.8245 23.5411 71.8245 24.9706ZM68.2383 24.9706C68.2383 24.2015 68.1359 23.5537 67.9311 23.027C67.7304 22.4962 67.4316 22.095 67.0345 21.8233C66.6416 21.5474 66.1568 21.4095 65.58 21.4095C65.0032 21.4095 64.5162 21.5474 64.1191 21.8233C63.7263 22.095 63.4274 22.4962 63.2226 23.027C63.022 23.5537 62.9217 24.2015 62.9217 24.9706C62.9217 25.7397 63.022 26.3896 63.2226 26.9205C63.4274 27.4471 63.7263 27.8484 64.1191 28.1242C64.5162 28.3959 65.0032 28.5317 65.58 28.5317C66.1568 28.5317 66.6416 28.3959 67.0345 28.1242C67.4316 27.8484 67.7304 27.4471 67.9311 26.9205C68.1359 26.3896 68.2383 25.7397 68.2383 24.9706Z" fill="white"/>
<path d="M73.48 18.5508H77.8185L80.8029 25.8235H80.9533L83.9377 18.5508H88.2762V31.3909H84.8656V23.9677H84.7652L81.9063 31.2906H79.8499L76.991 23.9176H76.8906V31.3909H73.48V18.5508Z" fill="white"/>
</svg>
