<svg width="28" height="28" viewBox="0 0 28 28" fill="none" xmlns="http://www.w3.org/2000/svg">
<path d="M14 0.0395508C6.265 0.0395508 0 6.30455 0 14.0396C0 20.2346 4.0075 25.4671 9.5725 27.3221C10.2725 27.4446 10.535 27.0246 10.535 26.6571C10.535 26.3246 10.5175 25.2221 10.5175 24.0496C7 24.6971 6.09 23.1921 5.81 22.4046C5.6525 22.0021 4.97 20.7596 4.375 20.427C3.885 20.1646 3.185 19.517 4.3575 19.4995C5.46 19.482 6.2475 20.5145 6.51 20.9345C7.77 23.052 9.7825 22.4571 10.5875 22.0896C10.71 21.1796 11.0775 20.5671 11.48 20.2171C8.365 19.8671 5.11 18.6595 5.11 13.3046C5.11 11.7821 5.6525 10.5221 6.545 9.54205C6.405 9.19205 5.915 7.75705 6.685 5.83205C6.685 5.83205 7.8575 5.46455 10.535 7.26705C11.655 6.95205 12.845 6.79455 14.035 6.79455C15.225 6.79455 16.415 6.95205 17.535 7.26705C20.2125 5.44705 21.385 5.83205 21.385 5.83205C22.155 7.75705 21.665 9.19205 21.525 9.54205C22.4175 10.5221 22.96 11.7646 22.96 13.3046C22.96 18.677 19.6875 19.8671 16.5725 20.2171C17.08 20.6546 17.5175 21.4946 17.5175 22.8071C17.5175 24.6796 17.5 26.1846 17.5 26.6571C17.5 27.0246 17.7625 27.4621 18.4625 27.3221C21.2418 26.3838 23.6568 24.5976 25.3677 22.2149C27.0786 19.8322 27.9993 16.9729 28 14.0396C28 6.30455 21.735 0.0395508 14 0.0395508Z" fill="white"/>
</svg>
