<svg width="56" height="56" viewBox="0 0 56 56" fill="none" xmlns="http://www.w3.org/2000/svg">
<path d="M54.3512 12.6696C54.3452 12.6435 54.3291 12.6214 54.3211 12.5953C54.303 12.5491 54.289 12.501 54.2649 12.4588C54.2488 12.4307 54.2248 12.4066 54.2047 12.3806C54.1786 12.3464 54.1565 12.3083 54.1264 12.2782C54.1003 12.2521 54.0682 12.234 54.0401 12.212C54.008 12.1859 53.9799 12.1578 53.9438 12.1377L43.4167 6.07638C43.1458 5.91983 42.8126 5.91983 42.5417 6.07638L32.0146 12.1377C31.9785 12.1578 31.9504 12.1879 31.9183 12.212C31.8902 12.234 31.8581 12.2521 31.832 12.2782C31.8019 12.3083 31.7798 12.3464 31.7537 12.3806C31.7336 12.4066 31.7095 12.4307 31.6935 12.4588C31.6694 12.501 31.6534 12.5491 31.6373 12.5953C31.6273 12.6194 31.6132 12.6435 31.6072 12.6696C31.5871 12.7438 31.5771 12.8201 31.5771 12.8984V24.4109L22.8042 29.4626V6.93941C22.8042 6.86114 22.7942 6.78487 22.7741 6.71061C22.7681 6.68452 22.752 6.66244 22.744 6.63635C22.7259 6.59018 22.7119 6.54201 22.6878 6.49987C22.6718 6.47177 22.6477 6.44768 22.6276 6.42159C22.6015 6.38747 22.5794 6.34934 22.5493 6.31923C22.5232 6.29314 22.4911 6.27507 22.463 6.253C22.4309 6.2269 22.4028 6.19881 22.3667 6.17874L11.8397 0.117413C11.5687 -0.0391377 11.2355 -0.0391377 10.9646 0.117413L0.437539 6.17874C0.401412 6.19881 0.373313 6.22891 0.3412 6.253C0.313101 6.27507 0.280988 6.29314 0.254896 6.31923C0.22479 6.34934 0.202713 6.38747 0.176621 6.42159C0.15655 6.44768 0.132466 6.47177 0.11641 6.49987C0.0923252 6.54201 0.0762674 6.59018 0.0602109 6.63635C0.0501756 6.66043 0.0361274 6.68452 0.0301062 6.71061C0.0100356 6.78487 0 6.86114 0 6.93941V42.9983C0 43.3114 0.168592 43.6024 0.439545 43.7589L21.4956 55.8816C21.5418 55.9077 21.592 55.9237 21.6401 55.9418C21.6622 55.9498 21.6843 55.9639 21.7084 55.9699C21.7826 55.99 21.8569 56 21.9332 56C22.0094 56 22.0837 55.99 22.1579 55.9699C22.178 55.9639 22.1961 55.9518 22.2162 55.9458C22.2683 55.9277 22.3205 55.9097 22.3687 55.8836L43.4248 43.7609C43.6977 43.6044 43.8643 43.3154 43.8643 43.0003V31.4878L53.9518 25.6793C54.2248 25.5228 54.3913 25.2338 54.3913 24.9187V12.8984C54.3813 12.8201 54.3693 12.7438 54.3512 12.6696ZM21.9171 41.9887L13.1603 37.0333L22.3566 31.7386L32.4461 25.9302L41.211 30.976L34.7803 34.6469L21.9171 41.9887ZM42.0981 19.4675V29.4626L38.4131 27.3412L33.3232 24.4109V14.4157L37.0082 16.5372L42.0981 19.4675ZM42.9752 7.84861L51.744 12.8984L42.9752 17.9481L34.2063 12.8984L42.9752 7.84861ZM15.9541 33.4025L12.2692 35.524V13.5085L17.3591 10.5782L21.044 8.45675V30.4702L15.9541 33.4025ZM11.3921 1.89166L20.1609 6.94142L11.3921 11.9912L2.62323 6.94142L11.3921 1.89166ZM1.74012 8.45675L5.42508 10.5782L10.515 13.5085V37.0393V37.0413V37.0433C10.515 37.0774 10.525 37.1095 10.529 37.1417C10.5351 37.1838 10.5351 37.228 10.5471 37.2701V37.2721C10.5571 37.3062 10.5752 37.3383 10.5892 37.3705C10.6053 37.4066 10.6153 37.4467 10.6354 37.4809C10.6354 37.4809 10.6354 37.4829 10.6374 37.4829C10.6555 37.513 10.6816 37.5391 10.7037 37.5672C10.7277 37.5993 10.7478 37.6314 10.7759 37.6595L10.7779 37.6615C10.802 37.6856 10.8341 37.7036 10.8622 37.7257C10.8943 37.7498 10.9224 37.7779 10.9565 37.798C10.9585 37.798 10.9586 37.798 10.9606 37.8C10.9626 37.8 10.9626 37.802 10.9646 37.802L21.048 43.5081V53.6016L1.74012 42.4905V8.45675ZM42.0981 42.4905L22.7962 53.6036V43.5081L37.0905 35.3473L42.0981 32.4893V42.4905ZM52.6251 24.4109L43.8523 29.4626V19.4675L48.9422 16.5372L52.6271 14.4157V24.4109H52.6251Z" fill="#FF2D20"/>
</svg>
