<svg width="56" height="56" viewBox="0 0 56 56" fill="none" xmlns="http://www.w3.org/2000/svg">
<path d="M10.149 43.2809L12.1838 51.151H10.6477L9.29237 45.482L6.73706 51.151H5.43953L2.89867 45.5145L1.50355 51.151H0L2.01678 43.2809H3.34684L6.09371 49.3746L8.82974 43.2809H10.149Z" fill="#003545"/>
<path d="M17.9866 46.3223V45.4061H19.4703V51.151H17.9866V50.2258C17.5945 50.8908 16.7885 51.2721 15.8072 51.2721C13.7561 51.2721 12.6122 49.8264 12.6122 48.1638C12.6122 46.5608 13.6965 45.2723 15.5886 45.2723C16.6674 45.285 17.562 45.6464 17.9866 46.3223ZM14.1916 48.2415C14.1916 49.2987 14.8567 50.2041 16.1434 50.2041C17.3849 50.2041 18.0607 49.3204 18.0607 48.274C18.0607 47.2277 17.3632 46.3331 16.0729 46.3331C14.8368 46.3331 14.1934 47.2259 14.1934 48.2415H14.1916Z" fill="#003545"/>
<path d="M22.8152 51.151H21.3334V45.4061H22.8152V46.6928C22.9847 46.2811 23.2713 45.9283 23.6394 45.678C24.0076 45.4278 24.4411 45.2911 24.8862 45.285C25.2018 45.2806 25.5156 45.332 25.8133 45.4368L25.4971 46.5211C25.241 46.4531 24.9776 46.4167 24.7127 46.4126C23.6429 46.4126 22.8152 47.2186 22.8152 48.4005V51.151Z" fill="#003545"/>
<path d="M26.5542 43.8899C26.5513 43.7857 26.5701 43.682 26.6093 43.5854C26.6485 43.4888 26.7073 43.4014 26.7821 43.3287C26.8568 43.256 26.9458 43.1996 27.0435 43.1631C27.1411 43.1265 27.2453 43.1107 27.3494 43.1165C27.4555 43.113 27.5612 43.1312 27.66 43.1699C27.7589 43.2086 27.8488 43.267 27.9244 43.3415C27.9999 43.4161 28.0595 43.5052 28.0996 43.6035C28.1396 43.7018 28.1592 43.8073 28.1572 43.9134C28.1592 44.018 28.1394 44.1219 28.0989 44.2184C28.0585 44.3149 27.9983 44.4018 27.9222 44.4736C27.8461 44.5455 27.7558 44.6006 27.6572 44.6354C27.5585 44.6703 27.4537 44.6841 27.3494 44.676C27.2445 44.6806 27.1398 44.6634 27.0419 44.6256C26.944 44.5878 26.8549 44.5302 26.7803 44.4565C26.7056 44.3827 26.647 44.2943 26.6081 44.1968C26.5692 44.0993 26.5509 43.9948 26.5542 43.8899ZM26.6193 45.4061H28.103V49.6041C28.103 49.8644 28.1572 50.0505 28.374 50.0505C28.4694 50.0481 28.5643 50.0373 28.6577 50.018L28.8873 51.1023C28.5749 51.2254 28.2417 51.2868 27.906 51.283C27.2843 51.283 26.6193 51.1023 26.6193 49.6909V45.4061Z" fill="#003545"/>
<path d="M34.7299 46.3223V45.4061H36.219V51.151H34.7353V50.2258C34.3432 50.8908 33.5372 51.2721 32.5559 51.2721C30.5066 51.2721 29.3608 49.8264 29.3608 48.1638C29.3608 46.5608 30.4451 45.2723 32.3372 45.2723C33.4107 45.285 34.3052 45.6464 34.7299 46.3223ZM30.9349 48.2415C30.9349 49.2987 31.5999 50.2041 32.8866 50.2041C34.1299 50.2041 34.8058 49.3204 34.8058 48.274C34.8058 47.2277 34.1064 46.3331 32.8179 46.3331C31.58 46.3331 30.9367 47.2259 30.9367 48.2415H30.9349Z" fill="#003545"/>
<path d="M38.4905 43.2809H42.0451C45.0324 43.2809 46.5251 44.9272 46.5034 47.215C46.5251 49.5933 44.8769 51.151 42.3072 51.151H38.4905V43.2809ZM39.4718 43.9784V50.4643H42.1825C44.5589 50.4643 45.4643 48.8614 45.4643 47.1934C45.4643 45.3085 44.3312 43.9784 42.1825 43.9784H39.4718Z" fill="#003545"/>
<path d="M52.5646 51.151H48.0468V43.2809H52.1219C53.6796 43.2809 55.1633 43.5736 55.1416 45.3193C55.1416 46.55 54.3772 46.8898 53.5712 47.0199C54.7151 47.1175 55.4036 47.8476 55.4036 49.0258C55.4109 50.7914 53.8621 51.151 52.5646 51.151ZM52.2267 46.7145C53.7862 46.7145 54.135 46.1145 54.135 45.3519C54.135 44.2061 53.4375 43.9459 52.2267 43.9459H48.9883V46.7145H52.2267ZM52.27 47.3795H48.9883V50.486H52.411C53.3706 50.486 54.3844 50.1697 54.3844 48.9608C54.3844 47.5656 53.2188 47.3795 52.27 47.3795Z" fill="#003545"/>
<path d="M55.7505 5.7717C55.6065 5.65305 55.4237 5.5919 55.2373 5.60002C54.7259 5.60002 54.0645 5.94699 53.7085 6.13313L53.5675 6.20542C52.9703 6.49451 52.3202 6.65811 51.6573 6.68612C50.9778 6.7078 50.3923 6.74756 49.6297 6.82708C45.1118 7.29151 43.0969 10.754 41.156 14.1027C40.0988 15.9243 39.0073 17.8164 37.5109 19.2621C37.2014 19.5623 36.8723 19.8418 36.5261 20.0988C34.9773 21.25 33.0328 22.0722 31.5202 22.6541C30.0637 23.2107 28.4734 23.7113 26.9373 24.1956C25.5295 24.6384 24.2013 25.0576 22.9796 25.5112C22.4285 25.7154 21.9604 25.8726 21.5466 26.01C20.4334 26.3714 19.631 26.6479 18.4582 27.4557C18.0009 27.7683 17.5419 28.1063 17.2311 28.3593C16.3001 29.1021 15.4761 29.9699 14.7824 30.9381C14.1859 31.8312 13.4965 32.6586 12.7259 33.4067C12.4783 33.6488 12.0392 33.7681 11.3813 33.7681C10.6115 33.7681 9.67721 33.6091 8.68869 33.441C7.66946 33.2603 6.61589 33.0886 5.71232 33.0886C4.97861 33.0886 4.41659 33.2079 3.99733 33.45C3.99733 33.45 3.29073 33.8621 2.99255 34.3952L3.28531 34.5271C3.7393 34.7732 4.15962 35.0769 4.53586 35.4307C4.92841 35.7932 5.36566 36.1042 5.83701 36.3559C5.98747 36.4111 6.1243 36.498 6.2382 36.6107C6.11531 36.7915 5.9346 37.0246 5.74485 37.274C4.70212 38.6384 4.09311 39.5004 4.44189 39.9702C4.60906 40.0571 4.79577 40.0994 4.98403 40.0931C7.25743 40.0931 8.47906 39.5022 10.0242 38.754C10.4724 38.5372 10.9278 38.3149 11.4699 38.0854C12.3735 37.6932 13.3457 37.0679 14.3776 36.4065C15.7275 35.5264 17.1389 34.6229 18.5088 34.1873C19.6345 33.8441 20.8071 33.6794 21.9839 33.6994C23.4296 33.6994 24.9513 33.8928 26.4187 34.0807C27.512 34.2217 28.6451 34.3663 29.7565 34.4331C30.1884 34.4584 30.5878 34.4711 30.9763 34.4711C31.496 34.4726 32.0155 34.4454 32.5322 34.3898L32.6569 34.3464C33.4358 33.8675 33.8009 32.8392 34.1551 31.8453C34.3828 31.2055 34.5743 30.6309 34.8779 30.2658C34.8958 30.248 34.9152 30.2317 34.9358 30.217C34.95 30.2091 34.9665 30.2062 34.9826 30.2089C34.9986 30.2115 35.0133 30.2195 35.0243 30.2315C35.0243 30.2315 35.0243 30.2405 35.0243 30.2604C34.8436 34.1476 33.2786 36.6162 31.6955 38.81L30.6384 39.9431C30.6384 39.9431 32.1184 39.9431 32.9605 39.6178C36.0327 38.6998 38.3513 36.6758 40.0392 33.4482C40.4554 32.6197 40.8276 31.7697 41.1542 30.9019C41.1831 30.8297 41.4487 30.6959 41.4234 31.07C41.4144 31.1802 41.4072 31.3031 41.3981 31.4314C41.3981 31.5073 41.3981 31.5851 41.3837 31.6628C41.3403 32.2049 41.212 33.3506 41.212 33.3506L42.1608 32.8428C44.4486 31.3971 46.2124 28.4804 47.5497 23.9426C48.1063 22.0523 48.5147 20.1747 48.8743 18.5212C49.3044 16.5333 49.6749 14.8291 50.0996 14.1677C50.7664 13.1304 51.7838 12.4292 52.7687 11.7479C52.9025 11.6558 53.038 11.5672 53.1699 11.4696C54.4078 10.6004 55.6385 9.59744 55.9096 7.72704V7.68547C56.1065 6.29035 55.9403 5.93434 55.7505 5.7717Z" fill="#003545"/>
</svg>
