<svg width="56" height="56" viewBox="0 0 56 56" fill="none" xmlns="http://www.w3.org/2000/svg">
<path d="M0 44.9068L10.3462 18.4355C11.8042 14.7052 15.3998 12.25 19.4049 12.25H25.6425L15.2963 38.7213C13.8384 42.4516 10.2427 44.9068 6.23756 44.9068H0Z" fill="url(#paint0_linear_8731_615)"/>
<path d="M15.1782 44.9069L25.5244 18.4356C26.9824 14.7053 30.578 12.2501 34.5832 12.2501H40.8207L30.4745 38.7214C29.0166 42.4517 25.4209 44.9069 21.4158 44.9069H15.1782Z" fill="url(#paint1_linear_8731_615)"/>
<path d="M30.3574 44.9069L40.7036 18.4356C42.1616 14.7053 45.757 12.2501 49.7621 12.2501H56L45.6537 38.7214C44.1955 42.4517 40.6001 44.9069 36.595 44.9069H30.3574Z" fill="url(#paint2_linear_8731_615)"/>
<defs>
<linearGradient id="paint0_linear_8731_615" x1="3944.35" y1="-237.191" x2="-27.8983" y2="2006.91" gradientUnits="userSpaceOnUse">
<stop stop-color="#FF5CAA"/>
<stop offset="1" stop-color="#FF4E62"/>
</linearGradient>
<linearGradient id="paint1_linear_8731_615" x1="3023.69" y1="-237.199" x2="-948.548" y2="2006.9" gradientUnits="userSpaceOnUse">
<stop stop-color="#FF5CAA"/>
<stop offset="1" stop-color="#FF4E62"/>
</linearGradient>
<linearGradient id="paint2_linear_8731_615" x1="2103" y1="-237.199" x2="-1869.26" y2="2006.91" gradientUnits="userSpaceOnUse">
<stop stop-color="#FF5CAA"/>
<stop offset="1" stop-color="#FF4E62"/>
</linearGradient>
</defs>
</svg>
