<svg width="57" height="56" viewBox="0 0 57 56" fill="none" xmlns="http://www.w3.org/2000/svg">
<path d="M54.8048 40.5104C51.8144 42.0672 36.3248 48.4288 33.0376 50.148C29.7504 51.8672 27.9136 51.828 25.3096 50.6072C22.7056 49.3864 6.2304 42.7 3.24 41.2888C1.756 40.5776 1 39.9784 1 39.4184V33.74C1 33.74 22.448 29.0696 25.9088 27.8264C29.3696 26.5832 30.5736 26.5384 33.5192 27.6192C36.4648 28.7 54.088 31.8976 57 32.9616V38.5616C57 39.1216 56.328 39.7376 54.8048 40.5328V40.5104Z" fill="#A32321"/>
<path d="M54.8048 34.8601C51.8144 36.4169 36.3248 42.7785 33.0376 44.4977C29.7504 46.2169 27.9136 46.1777 25.3096 44.9569C22.7056 43.7361 6.2304 37.0441 3.24 35.6273C0.249602 34.2105 0.210402 33.2305 3.128 32.0881C6.0456 30.9457 22.448 24.5225 25.9088 23.2793C29.3696 22.0361 30.5736 21.9801 33.5192 23.1001C36.4648 24.2201 51.8592 30.2737 54.76 31.3433C57.6608 32.4129 57.784 33.2865 54.7936 34.8489L54.8048 34.8601Z" fill="#DC382D"/>
<path d="M54.8048 31.276C51.8144 32.8328 36.3248 39.2 33.0376 40.9192C29.7504 42.6384 27.9136 42.5992 25.3096 41.3784C22.7056 40.1576 6.2304 33.4768 3.24 32.06C1.756 31.3488 1 30.7496 1 30.184V24.528C1 24.528 22.448 19.8576 25.9088 18.62C29.3696 17.3824 30.5736 17.332 33.5192 18.4128C36.4648 19.4936 54.088 22.6632 57 23.7328V29.3328C57 29.8928 56.328 30.5088 54.8048 31.2984V31.276Z" fill="#A32321"/>
<path d="M54.8048 25.6145C51.8144 27.1713 36.3248 33.5385 33.0376 35.2577C29.7504 36.9769 27.9136 36.9376 25.3096 35.7169C22.7056 34.496 6.2304 27.8153 3.24 26.3985C0.249602 24.9817 0.210402 24.0017 3.128 22.8593C6.0456 21.7169 22.448 15.2881 25.9088 14.0505C29.3696 12.8129 30.5736 12.7625 33.5192 13.8433C36.4648 14.9241 51.8592 21.0449 54.76 22.1145C57.6608 23.1841 57.784 24.0577 54.7936 25.6145H54.8048Z" fill="#DC382D"/>
<path d="M54.8048 21.7056C51.8144 23.2624 36.3248 29.6296 33.0376 31.3488C29.7504 33.068 27.9136 33.0288 25.3096 31.8024C22.7056 30.576 6.2304 23.9064 3.24 22.484C1.756 21.7784 1 21.1792 1 20.6136V14.952C1 14.952 22.448 10.2872 25.9088 9.04404C29.3696 7.80084 30.5736 7.75604 33.5192 8.83684C36.4648 9.91764 54.088 13.0928 57 14.14V19.74C57 20.3 56.328 20.916 54.8048 21.7056Z" fill="#A32321"/>
<path d="M54.8048 16.044C51.8144 17.6008 36.3248 23.968 33.0376 25.6872C29.7504 27.4064 27.9136 27.3672 25.3096 26.1408C22.7056 24.9144 6.2304 18.2448 3.24 16.8224C0.249602 15.4 0.210402 14.4312 3.128 13.2888C6.0456 12.1464 22.448 5.74004 25.9088 4.47444C29.3696 3.20884 30.5736 3.19204 33.5192 4.26724C36.4648 5.34244 51.8592 11.4744 54.76 12.5384C57.6608 13.6024 57.784 14.4872 54.7936 16.044H54.8048Z" fill="#DC382D"/>
<path d="M29.8792 7.99676L33.5696 6.79276L32.5728 9.18396L36.336 10.5896L31.4864 11.0936L30.4 13.7088L28.6416 10.7912L23.0416 10.2928L27.2192 8.78076L25.9648 6.46796L29.8792 7.99676Z" fill="white"/>
<path d="M30.1088 23.2736L21.048 19.516L34.0288 17.528L30.1088 23.2736Z" fill="white"/>
<path d="M17.5536 12.0456C21.384 12.0456 24.4864 13.2496 24.4864 14.7336C24.4864 16.2176 21.384 17.4216 17.5536 17.4216C13.7232 17.4216 10.6152 16.2176 10.6152 14.7336C10.6152 13.2496 13.7232 12.0456 17.5536 12.0456Z" fill="white"/>
<path d="M42.0704 11.3064L49.7536 14.3416L42.076 17.3712L42.0704 11.3064Z" fill="#741012"/>
<path d="M42.0704 11.3064L42.076 17.3712L41.2472 17.7016L33.5752 14.6664L42.0704 11.3064Z" fill="#AC2823"/>
</svg>
