<svg width="94" height="19" viewBox="0 0 94 19" fill="none" xmlns="http://www.w3.org/2000/svg">
<rect x="70.7179" width="23.2821" height="18.9706" rx="0.862301" fill="#282828"/>
<rect x="86.7567" y="13.6244" width="4.65643" height="0.689841" fill="#3FF000"/>
<path fill-rule="evenodd" clip-rule="evenodd" d="M77.7888 14.09C78.2394 14.09 78.6419 14.0276 78.996 13.9029C79.3501 13.7781 79.6539 13.5991 79.9074 13.3657C80.1609 13.1323 80.3541 12.8486 80.4869 12.5146C80.6197 12.1806 80.6861 11.8043 80.6861 11.3858V5.27728H78.8753V11.3738C78.8753 11.744 78.7787 12.0277 78.5855 12.2248C78.3924 12.422 78.1268 12.5206 77.7888 12.5206C77.4427 12.5206 77.1751 12.422 76.9859 12.2248C76.7968 12.0277 76.7023 11.744 76.7023 11.3738V5.27728H74.8914V11.3858C74.8914 11.8043 74.9578 12.1806 75.0906 12.5146C75.2234 12.8486 75.4166 13.1323 75.6701 13.3657C75.9236 13.5991 76.2294 13.7781 76.5876 13.9029C76.9457 14.0276 77.3461 14.09 77.7888 14.09ZM83.9818 13.9693V10.7098H85.2132C85.688 10.7098 86.1146 10.6454 86.4929 10.5166C86.8711 10.3879 87.1931 10.2068 87.4586 9.97338C87.7242 9.73998 87.9295 9.45427 88.0743 9.11625C88.2192 8.77823 88.2916 8.40399 88.2916 7.99353C88.2916 7.57503 88.2192 7.19878 88.0743 6.86478C87.9295 6.53078 87.7242 6.24507 87.4586 6.00765C87.1931 5.77023 86.8711 5.58915 86.4929 5.4644C86.1146 5.33966 85.688 5.27728 85.2132 5.27728H82.171V13.9693H83.9818ZM83.9818 9.20076H85.2132C85.6156 9.20076 85.9275 9.09009 86.1488 8.86877C86.3701 8.64745 86.4808 8.3557 86.4808 7.99353C86.4808 7.63137 86.3701 7.33962 86.1488 7.1183C85.9275 6.89697 85.6156 6.78631 85.2132 6.78631H83.9818V9.20076Z" fill="#3FF000"/>
<path fill-rule="evenodd" clip-rule="evenodd" d="M54.1439 6.07882C54.4014 6.07882 54.6107 6.00639 54.7717 5.86152C54.9326 5.71666 55.0131 5.5235 55.0131 5.28206C55.0131 5.04866 54.9346 4.85752 54.7777 4.70863C54.6207 4.55974 54.4135 4.48529 54.156 4.48529H53.8421C53.5845 4.48529 53.3773 4.55974 53.2204 4.70863C53.0634 4.85752 52.985 5.04866 52.985 5.28206C52.985 5.5235 53.0634 5.71666 53.2204 5.86152C53.3773 6.00639 53.5845 6.07882 53.8421 6.07882H54.1439ZM2.95769 13.8413C3.40839 13.8413 3.81482 13.7809 4.17699 13.6602C4.53915 13.5395 4.84901 13.3704 5.10655 13.1531C5.36409 12.9358 5.56328 12.6743 5.70412 12.3684C5.84496 12.0626 5.91539 11.7206 5.91539 11.3423C5.91539 10.6743 5.72625 10.113 5.34799 9.65824C4.96973 9.20352 4.41843 8.87555 3.6941 8.67435L2.72832 8.40876C2.02813 8.20756 1.67804 7.81722 1.67804 7.23776C1.67804 6.93193 1.79071 6.68646 2.01606 6.50135C2.24141 6.31624 2.55126 6.22369 2.94562 6.22369C3.31584 6.22369 3.62167 6.31624 3.86311 6.50135C4.10455 6.68646 4.23332 6.944 4.24942 7.27397H5.78259C5.74235 6.53354 5.47073 5.95207 4.96772 5.52954C4.46471 5.10701 3.80275 4.89575 2.98184 4.89575C2.54724 4.89575 2.1569 4.95208 1.81083 5.06476C1.46476 5.17743 1.17101 5.34041 0.929561 5.55368C0.688116 5.76696 0.500997 6.02249 0.368203 6.32027C0.235408 6.61805 0.169011 6.94802 0.169011 7.31019C0.169011 8.62204 0.917488 9.48319 2.41444 9.89364L3.33193 10.1592C3.66995 10.2639 3.93152 10.4248 4.11663 10.6421C4.30173 10.8594 4.39429 11.117 4.39429 11.4147C4.39429 11.7528 4.27155 12.0224 4.02608 12.2236C3.78062 12.4248 3.43656 12.5254 2.99391 12.5254C2.56736 12.5254 2.2233 12.4268 1.96174 12.2296C1.70017 12.0324 1.56134 11.7608 1.54524 11.4147H0C0.0160963 11.785 0.0985898 12.119 0.24748 12.4167C0.396371 12.7145 0.599587 12.97 0.857127 13.1833C1.11467 13.3966 1.42251 13.5596 1.78065 13.6722C2.13879 13.7849 2.53114 13.8413 2.95769 13.8413ZM10.201 13.8413C10.5551 13.8413 10.8871 13.799 11.197 13.7145C11.5068 13.63 11.7845 13.5093 12.03 13.3523C12.2754 13.1954 12.4827 13.0043 12.6517 12.7789C12.8207 12.5536 12.9414 12.3041 13.0138 12.0304H11.529C11.4324 12.2236 11.2694 12.3705 11.04 12.4711C10.8107 12.5717 10.531 12.622 10.201 12.622C9.76642 12.622 9.42639 12.4972 9.18092 12.2477C8.93545 11.9982 8.81272 11.6522 8.81272 11.2095V10.7749H13.0742V9.56769C13.0742 9.17334 13.0058 8.81519 12.869 8.49327C12.7322 8.17134 12.539 7.8977 12.2895 7.67236C12.04 7.44701 11.7382 7.27196 11.3841 7.14722C11.03 7.02247 10.6356 6.9601 10.201 6.9601C9.76642 6.9601 9.37005 7.02046 9.01191 7.14118C8.65376 7.2619 8.34995 7.43494 8.10045 7.66028C7.85096 7.88563 7.65781 8.15927 7.52099 8.4812C7.38417 8.80312 7.31576 9.16126 7.31576 9.55562V11.2337C7.31576 11.628 7.38417 11.9862 7.52099 12.3081C7.65781 12.63 7.85096 12.9037 8.10045 13.129C8.34995 13.3543 8.65376 13.5294 9.01191 13.6541C9.37005 13.7789 9.76642 13.8413 10.201 13.8413ZM8.81271 9.76085H11.5893V9.5677C11.5893 9.12505 11.4686 8.78099 11.2272 8.53552C10.9857 8.29005 10.6437 8.16732 10.201 8.16732C9.76642 8.16732 9.42639 8.29005 9.18092 8.53552C8.93545 8.78099 8.81271 9.12102 8.81271 9.55562V9.76085ZM16.4786 13.7205V9.59184C16.4786 9.17334 16.5892 8.84336 16.8106 8.60192C17.0319 8.36047 17.3357 8.23975 17.722 8.23975C18.1325 8.23975 18.4544 8.35846 18.6878 8.59588C18.9212 8.8333 19.0379 9.16529 19.0379 9.59184V9.94193H20.6193V9.45904C20.6193 8.67837 20.4181 8.06672 20.0157 7.62407C19.6133 7.18142 19.054 6.9601 18.3377 6.9601C17.8387 6.9601 17.4283 7.07076 17.1063 7.29208C16.7844 7.51341 16.5832 7.82527 16.5027 8.22768H16.3941V7.08082H14.9695V13.7205H16.4786ZM27.8989 7.08082L25.5931 13.7205H23.8185L21.4765 7.08082H23.0459L24.4583 11.3785C24.5147 11.5395 24.5569 11.6944 24.5851 11.8433C24.6132 11.9922 24.6354 12.123 24.6515 12.2357C24.6676 12.3725 24.6796 12.5012 24.6877 12.622H24.7722C24.7722 12.5012 24.7802 12.3725 24.7963 12.2357C24.8124 12.123 24.8346 11.9922 24.8627 11.8433C24.8909 11.6944 24.9291 11.5395 24.9774 11.3785L26.3295 7.08082H27.8989ZM31.931 13.8413C32.2851 13.8413 32.6171 13.799 32.927 13.7145C33.2368 13.63 33.5145 13.5093 33.76 13.3523C34.0054 13.1954 34.2127 13.0043 34.3817 12.7789C34.5507 12.5536 34.6714 12.3041 34.7438 12.0304H33.259C33.1624 12.2236 32.9994 12.3705 32.77 12.4711C32.5407 12.5717 32.261 12.622 31.931 12.622C31.4964 12.622 31.1564 12.4972 30.9109 12.2477C30.6654 11.9982 30.5427 11.6522 30.5427 11.2095V10.7749H34.8042V9.56769C34.8042 9.17334 34.7358 8.81519 34.599 8.49327C34.4622 8.17134 34.269 7.8977 34.0195 7.67236C33.77 7.44701 33.4682 7.27196 33.1141 7.14722C32.76 7.02247 32.3656 6.9601 31.931 6.9601C31.4964 6.9601 31.1 7.02046 30.7419 7.14118C30.3838 7.2619 30.0799 7.43494 29.8304 7.66028C29.581 7.88563 29.3878 8.15927 29.251 8.4812C29.1142 8.80312 29.0458 9.16126 29.0458 9.55562V11.2337C29.0458 11.628 29.1142 11.9862 29.251 12.3081C29.3878 12.63 29.581 12.9037 29.8304 13.129C30.0799 13.3543 30.3838 13.5294 30.7419 13.6541C31.1 13.7789 31.4964 13.8413 31.931 13.8413ZM30.5427 9.76085H33.3193V9.5677C33.3193 9.12505 33.1986 8.78099 32.9571 8.53552C32.7157 8.29005 32.3737 8.16732 31.931 8.16732C31.4964 8.16732 31.1564 8.29005 30.9109 8.53552C30.6654 8.78099 30.5427 9.12102 30.5427 9.55562V9.76085ZM38.2086 13.7205V9.59184C38.2086 9.17334 38.3192 8.84336 38.5406 8.60192C38.7619 8.36047 39.0657 8.23975 39.452 8.23975C39.8625 8.23975 40.1844 8.35846 40.4178 8.59588C40.6512 8.8333 40.7679 9.16529 40.7679 9.59184V9.94193H42.3493V9.45904C42.3493 8.67837 42.1481 8.06672 41.7457 7.62407C41.3433 7.18142 40.784 6.9601 40.0677 6.9601C39.5687 6.9601 39.1582 7.07076 38.8363 7.29208C38.5144 7.51341 38.3132 7.82527 38.2327 8.22768H38.1241V7.08082H36.6995V13.7205H38.2086ZM47.637 13.6602C47.2748 13.7809 46.8684 13.8413 46.4177 13.8413C45.9911 13.8413 45.5988 13.7849 45.2406 13.6722C44.8825 13.5596 44.5747 13.3966 44.3171 13.1833C44.0596 12.97 43.8564 12.7145 43.7075 12.4167C43.5586 12.119 43.4761 11.785 43.46 11.4147H45.0052C45.0213 11.7608 45.1602 12.0324 45.4217 12.2296C45.6833 12.4268 46.0273 12.5254 46.4539 12.5254C46.8965 12.5254 47.2406 12.4248 47.4861 12.2236C47.7315 12.0224 47.8543 11.7528 47.8543 11.4147C47.8543 11.117 47.7617 10.8594 47.5766 10.6421C47.3915 10.4248 47.1299 10.2639 46.7919 10.1592L45.8744 9.89364C44.3775 9.48319 43.629 8.62204 43.629 7.31019C43.629 6.94802 43.6954 6.61805 43.8282 6.32027C43.961 6.02249 44.1481 5.76696 44.3895 5.55368C44.631 5.34041 44.9247 5.17743 45.2708 5.06476C45.6169 4.95208 46.0072 4.89575 46.4418 4.89575C47.2627 4.89575 47.9247 5.10701 48.4277 5.52954C48.9307 5.95207 49.2023 6.53354 49.2426 7.27397H47.7094C47.6933 6.944 47.5645 6.68646 47.3231 6.50135C47.0816 6.31624 46.7758 6.22369 46.4056 6.22369C46.0112 6.22369 45.7014 6.31624 45.476 6.50135C45.2507 6.68646 45.138 6.93193 45.138 7.23776C45.138 7.81722 45.4881 8.20756 46.1883 8.40876L47.1541 8.67435C47.8784 8.87555 48.4297 9.20352 48.808 9.65824C49.1862 10.113 49.3754 10.6743 49.3754 11.3423C49.3754 11.7206 49.305 12.0626 49.1641 12.3684C49.0233 12.6743 48.8241 12.9358 48.5665 13.1531C48.309 13.3704 47.9991 13.5395 47.637 13.6602ZM56.7877 12.3443V13.7205H51.0413V12.3443H53.4196V8.44498H51.3431V7.08082H54.8682V12.3443H56.7877ZM60.3007 13.8413C60.7836 13.8413 61.182 13.7286 61.4959 13.5032C61.8098 13.2779 62.0029 12.964 62.0753 12.5616H62.1961V13.7205H63.6447V4.90782H62.1357V7.08082C62.1357 7.18545 62.1377 7.30416 62.1417 7.43695C62.1458 7.56974 62.1558 7.6965 62.1719 7.81722L62.1961 8.22768H62.0753C62.0029 7.83332 61.8098 7.52347 61.4959 7.29812C61.182 7.07277 60.7836 6.9601 60.3007 6.9601C59.9627 6.9601 59.6529 7.02046 59.3712 7.14118C59.0895 7.2619 58.848 7.43494 58.6468 7.66029C58.4456 7.88563 58.2907 8.15726 58.1821 8.47516C58.0734 8.79306 58.0191 9.15322 58.0191 9.55562V11.2095C58.0191 11.6119 58.0734 11.9761 58.1821 12.3021C58.2907 12.628 58.4456 12.9057 58.6468 13.135C58.848 13.3644 59.0895 13.5395 59.3712 13.6602C59.6529 13.7809 59.9627 13.8413 60.3007 13.8413ZM59.8782 12.1572C60.1116 12.4027 60.4335 12.5254 60.844 12.5254C61.2383 12.5254 61.5522 12.4047 61.7856 12.1632C62.019 11.9218 62.1357 11.6039 62.1357 11.2095V9.59184C62.1357 9.18943 62.017 8.86751 61.7796 8.62606C61.5422 8.38462 61.2303 8.2639 60.844 8.2639C60.4335 8.2639 60.1116 8.38261 59.8782 8.62003C59.6448 8.85745 59.5281 9.18138 59.5281 9.59184V11.1733C59.5281 11.5838 59.6448 11.9117 59.8782 12.1572ZM68.1477 13.8413C68.5018 13.8413 68.8338 13.799 69.1436 13.7145C69.4535 13.63 69.7311 13.5093 69.9766 13.3523C70.2221 13.1954 70.4293 13.0043 70.5983 12.7789C70.7673 12.5536 70.8881 12.3041 70.9605 12.0304H69.4756C69.379 12.2236 69.2161 12.3705 68.9867 12.4711C68.7573 12.5717 68.4776 12.622 68.1477 12.622C67.7131 12.622 67.373 12.4972 67.1276 12.2477C66.8821 11.9982 66.7594 11.6522 66.7594 11.2095V10.7749H71.0209V9.56769C71.0209 9.17334 70.9524 8.81519 70.8156 8.49327C70.6788 8.17134 70.4856 7.8977 70.2362 7.67236C69.9867 7.44701 69.6849 7.27196 69.3307 7.14722C68.9766 7.02247 68.5823 6.9601 68.1477 6.9601C67.7131 6.9601 67.3167 7.02046 66.9585 7.14118C66.6004 7.2619 66.2966 7.43494 66.0471 7.66028C65.7976 7.88563 65.6045 8.15927 65.4676 8.4812C65.3308 8.80312 65.2624 9.16126 65.2624 9.55562V11.2337C65.2624 11.628 65.3308 11.9862 65.4676 12.3081C65.6045 12.63 65.7976 12.9037 66.0471 13.129C66.2966 13.3543 66.6004 13.5294 66.9585 13.6541C67.3167 13.7789 67.7131 13.8413 68.1477 13.8413ZM66.7594 9.76085H69.536V9.5677C69.536 9.12505 69.4153 8.78099 69.1738 8.53552C68.9324 8.29005 68.5903 8.16732 68.1477 8.16732C67.7131 8.16732 67.373 8.29005 67.1276 8.53552C66.8821 8.78099 66.7594 9.12102 66.7594 9.55562V9.76085Z" fill="white"/>
</svg>
