<svg width="254" height="51" viewBox="0 0 254 51" fill="none" xmlns="http://www.w3.org/2000/svg">
<rect x="192.148" y="0.0395508" width="61.3638" height="50.0002" rx="2.27273" fill="#282828"/>
<rect x="234.421" y="35.9487" width="12.2728" height="1.81819" fill="#3FF000"/>
<path fill-rule="evenodd" clip-rule="evenodd" d="M210.784 37.1761C211.972 37.1761 213.033 37.0117 213.966 36.6829C214.9 36.3541 215.7 35.8821 216.368 35.267C217.037 34.6518 217.546 33.9041 217.896 33.0238C218.246 32.1435 218.421 31.1518 218.421 30.0488V13.9487H213.648V30.017C213.648 30.9927 213.393 31.7405 212.884 32.2602C212.375 32.7799 211.675 33.0397 210.784 33.0397C209.872 33.0397 209.167 32.7799 208.668 32.2602C208.17 31.7405 207.921 30.9927 207.921 30.017V13.9487H203.148V30.0488C203.148 31.1518 203.323 32.1435 203.673 33.0238C204.023 33.9041 204.532 34.6518 205.2 35.267C205.868 35.8821 206.674 36.3541 207.618 36.6829C208.562 37.0117 209.618 37.1761 210.784 37.1761ZM227.107 36.8579V28.267H230.353C231.604 28.267 232.728 28.0973 233.725 27.7579C234.722 27.4185 235.571 26.9412 236.271 26.326C236.971 25.7109 237.512 24.9579 237.894 24.0669C238.275 23.176 238.466 22.1897 238.466 21.1078C238.466 20.0048 238.275 19.0131 237.894 18.1328C237.512 17.2525 236.971 16.4995 236.271 15.8737C235.571 15.248 234.722 14.7707 233.725 14.4419C232.728 14.1131 231.604 13.9487 230.353 13.9487H222.334V36.8579H227.107ZM227.107 24.2897H230.353C231.413 24.2897 232.235 23.998 232.819 23.4147C233.402 22.8313 233.694 22.0624 233.694 21.1078C233.694 20.1533 233.402 19.3844 232.819 18.801C232.235 18.2177 231.413 17.926 230.353 17.926H227.107V24.2897Z" fill="#3FF000"/>
<path fill-rule="evenodd" clip-rule="evenodd" d="M143.193 16.7169C143.872 16.7169 144.424 16.5259 144.848 16.1441C145.272 15.7623 145.484 15.2532 145.484 14.6169C145.484 14.0017 145.277 13.4979 144.864 13.1055C144.45 12.7131 143.904 12.5168 143.225 12.5168H142.398C141.719 12.5168 141.173 12.7131 140.759 13.1055C140.345 13.4979 140.139 14.0017 140.139 14.6169C140.139 15.2532 140.345 15.7623 140.759 16.1441C141.173 16.5259 141.719 16.7169 142.398 16.7169H143.193ZM8.2837 37.176C9.47158 37.176 10.5428 37.0169 11.4973 36.6987C12.4519 36.3805 13.2686 35.935 13.9474 35.3623C14.6261 34.7896 15.1511 34.1002 15.5224 33.2941C15.8936 32.4881 16.0792 31.5865 16.0792 30.5896C16.0792 28.829 15.5807 27.3494 14.5837 26.1509C13.5867 24.9524 12.1337 24.088 10.2246 23.5577L7.67915 22.8577C5.83369 22.3274 4.91096 21.2986 4.91096 19.7714C4.91096 18.9653 5.20793 18.3183 5.80187 17.8304C6.39581 17.3426 7.21248 17.0986 8.25188 17.0986C9.22764 17.0986 10.0337 17.3426 10.6701 17.8304C11.3064 18.3183 11.6458 18.9971 11.6883 19.8668H15.7292C15.6231 17.9153 14.9072 16.3827 13.5814 15.2691C12.2557 14.1554 10.511 13.5986 8.34734 13.5986C7.20188 13.5986 6.17309 13.7471 5.26096 14.0441C4.34884 14.341 3.57459 14.7706 2.93823 15.3327C2.30186 15.8948 1.80868 16.5683 1.45868 17.3532C1.10868 18.138 0.933676 19.0077 0.933676 19.9623C0.933676 23.4199 2.90641 25.6896 6.85188 26.7714L9.27007 27.4714C10.161 27.7471 10.8504 28.1714 11.3383 28.7441C11.8261 29.3168 12.0701 29.9956 12.0701 30.7805C12.0701 31.6714 11.7466 32.382 11.0996 32.9123C10.4526 33.4426 9.54583 33.7078 8.37915 33.7078C7.25491 33.7078 6.34809 33.4479 5.65869 32.9282C4.9693 32.4085 4.60338 31.6926 4.56096 30.7805H0.48822C0.530645 31.7562 0.748069 32.6366 1.1405 33.4214C1.53292 34.2063 2.06853 34.8797 2.74732 35.4419C3.42611 36.004 4.23747 36.4335 5.18142 36.7305C6.12536 37.0275 7.15945 37.176 8.2837 37.176ZM27.3747 37.1761C28.308 37.1761 29.183 37.0647 29.9997 36.842C30.8163 36.6192 31.5482 36.3011 32.1951 35.8874C32.8421 35.4738 33.3883 34.97 33.8338 34.376C34.2792 33.7821 34.5974 33.1245 34.7883 32.4033H30.8747C30.6201 32.9124 30.1906 33.2995 29.586 33.5647C28.9815 33.8298 28.2444 33.9624 27.3747 33.9624C26.2292 33.9624 25.333 33.6336 24.686 32.976C24.0391 32.3185 23.7156 31.4063 23.7156 30.2397V29.0942H34.9474V25.9124C34.9474 24.873 34.7671 23.929 34.4065 23.0806C34.0459 22.2321 33.5368 21.5109 32.8792 20.9169C32.2217 20.323 31.4262 19.8616 30.4929 19.5328C29.5595 19.204 28.5201 19.0396 27.3747 19.0396C26.2292 19.0396 25.1845 19.1987 24.2406 19.5169C23.2966 19.8351 22.4959 20.2912 21.8383 20.8851C21.1807 21.479 20.6716 22.2003 20.311 23.0487C19.9504 23.8972 19.7701 24.8412 19.7701 25.8806V30.3033C19.7701 31.3427 19.9504 32.2866 20.311 33.1351C20.6716 33.9836 21.1807 34.7048 21.8383 35.2988C22.4959 35.8927 23.2966 36.3541 24.2406 36.6829C25.1845 37.0117 26.2292 37.1761 27.3747 37.1761ZM23.7156 26.4215H31.0338V25.9124C31.0338 24.7457 30.7156 23.8389 30.0792 23.1919C29.4429 22.545 28.5413 22.2215 27.3747 22.2215C26.2292 22.2215 25.333 22.545 24.686 23.1919C24.0391 23.8389 23.7156 24.7351 23.7156 25.8806V26.4215ZM43.9202 36.8579V25.976C43.9202 24.873 44.2118 24.0033 44.7952 23.3669C45.3785 22.7306 46.1793 22.4124 47.1975 22.4124C48.2793 22.4124 49.1278 22.7253 49.7429 23.351C50.3581 23.9768 50.6657 24.8518 50.6657 25.976V26.8988H54.8339V25.626C54.8339 23.5684 54.3035 21.9563 53.2429 20.7896C52.1823 19.623 50.7081 19.0396 48.8202 19.0396C47.505 19.0396 46.4232 19.3313 45.5747 19.9146C44.7262 20.498 44.1959 21.3199 43.9838 22.3806H43.6975V19.3578H39.9429V36.8579H43.9202ZM74.0203 19.3578L67.943 36.8579H63.2657L57.0929 19.3578H61.2293L64.9521 30.6851C65.1005 31.1094 65.2119 31.5177 65.2862 31.9101C65.3604 32.3025 65.4187 32.6472 65.4612 32.9442C65.5036 33.3048 65.5354 33.6442 65.5566 33.9624H65.7793C65.7793 33.6442 65.8006 33.3048 65.843 32.9442C65.8854 32.6472 65.9437 32.3025 66.018 31.9101C66.0922 31.5177 66.193 31.1094 66.3202 30.6851L69.8839 19.3578H74.0203ZM84.6476 37.1761C85.5809 37.1761 86.4559 37.0647 87.2726 36.842C88.0893 36.6192 88.8211 36.3011 89.468 35.8874C90.115 35.4738 90.6612 34.97 91.1067 34.376C91.5521 33.7821 91.8703 33.1245 92.0612 32.4033H88.1476C87.893 32.9124 87.4635 33.2995 86.8589 33.5647C86.2544 33.8298 85.5173 33.9624 84.6476 33.9624C83.5021 33.9624 82.6059 33.6336 81.9589 32.976C81.312 32.3185 80.9885 31.4063 80.9885 30.2397V29.0942H92.2203V25.9124C92.2203 24.873 92.04 23.929 91.6794 23.0806C91.3188 22.2321 90.8097 21.5109 90.1521 20.9169C89.4946 20.323 88.6991 19.8616 87.7658 19.5328C86.8324 19.204 85.793 19.0396 84.6476 19.0396C83.5021 19.0396 82.4574 19.1987 81.5135 19.5169C80.5695 19.8351 79.7688 20.2912 79.1112 20.8851C78.4536 21.479 77.9445 22.2003 77.5839 23.0487C77.2233 23.8972 77.043 24.8412 77.043 25.8806V30.3033C77.043 31.3427 77.2233 32.2866 77.5839 33.1351C77.9445 33.9836 78.4536 34.7048 79.1112 35.2988C79.7688 35.8927 80.5695 36.3541 81.5135 36.6829C82.4574 37.0117 83.5021 37.1761 84.6476 37.1761ZM80.9885 26.4215H88.3067V25.9124C88.3067 24.7457 87.9885 23.8389 87.3521 23.1919C86.7158 22.545 85.8143 22.2215 84.6476 22.2215C83.5021 22.2215 82.6059 22.545 81.9589 23.1919C81.312 23.8389 80.9885 24.7351 80.9885 25.8806V26.4215ZM101.193 36.8579V25.976C101.193 24.873 101.485 24.0033 102.068 23.3669C102.651 22.7306 103.452 22.4124 104.47 22.4124C105.552 22.4124 106.401 22.7253 107.016 23.351C107.631 23.9768 107.939 24.8518 107.939 25.976V26.8988H112.107V25.626C112.107 23.5684 111.576 21.9563 110.516 20.7896C109.455 19.623 107.981 19.0396 106.093 19.0396C104.778 19.0396 103.696 19.3313 102.848 19.9146C101.999 20.498 101.469 21.3199 101.257 22.3806H100.97V19.3578H97.2158V36.8579H101.193ZM126.043 36.6987C125.089 37.0169 124.017 37.176 122.83 37.176C121.705 37.176 120.671 37.0275 119.727 36.7305C118.783 36.4335 117.972 36.004 117.293 35.4419C116.614 34.8797 116.079 34.2063 115.686 33.4214C115.294 32.6366 115.076 31.7562 115.034 30.7805H119.107C119.149 31.6926 119.515 32.4085 120.205 32.9282C120.894 33.4479 121.801 33.7078 122.925 33.7078C124.092 33.7078 124.998 33.4426 125.645 32.9123C126.292 32.382 126.616 31.6714 126.616 30.7805C126.616 29.9956 126.372 29.3168 125.884 28.7441C125.396 28.1714 124.707 27.7471 123.816 27.4714L121.398 26.7714C117.452 25.6896 115.479 23.4199 115.479 19.9623C115.479 19.0077 115.654 18.138 116.005 17.3532C116.354 16.5683 116.848 15.8948 117.484 15.3327C118.12 14.7706 118.895 14.341 119.807 14.0441C120.719 13.7471 121.748 13.5986 122.893 13.5986C125.057 13.5986 126.802 14.1554 128.127 15.2691C129.453 16.3827 130.169 17.9153 130.275 19.8668H126.234C126.192 18.9971 125.852 18.3183 125.216 17.8304C124.58 17.3426 123.773 17.0986 122.798 17.0986C121.758 17.0986 120.942 17.3426 120.348 17.8304C119.754 18.3183 119.457 18.9653 119.457 19.7714C119.457 21.2986 120.38 22.3274 122.225 22.8577L124.77 23.5577C126.68 24.088 128.133 24.9524 129.13 26.1509C130.127 27.3494 130.625 28.829 130.625 30.5896C130.625 31.5865 130.439 32.4881 130.068 33.2941C129.697 34.1002 129.172 34.7896 128.493 35.3623C127.814 35.935 126.998 36.3805 126.043 36.6987ZM150.161 33.2306V36.8579H135.016V33.2306H141.284V22.9533H135.811V19.3578H145.102V33.2306H150.161ZM159.421 37.176C160.693 37.176 161.743 36.879 162.571 36.2851C163.398 35.6911 163.907 34.8639 164.098 33.8033H164.416V36.8578H168.234V13.6305H164.257V19.3578C164.257 19.6335 164.262 19.9464 164.273 20.2964C164.283 20.6464 164.31 20.9805 164.352 21.2987L164.416 22.3805H164.098C163.907 21.3411 163.398 20.5244 162.571 19.9305C161.743 19.3365 160.693 19.0396 159.421 19.0396C158.53 19.0396 157.713 19.1987 156.971 19.5168C156.228 19.835 155.592 20.2911 155.061 20.885C154.531 21.479 154.123 22.1949 153.836 23.0328C153.55 23.8706 153.407 24.8199 153.407 25.8805V30.2396C153.407 31.3002 153.55 32.2601 153.836 33.1192C154.123 33.9783 154.531 34.7101 155.061 35.3146C155.592 35.9192 156.228 36.3805 156.971 36.6987C157.713 37.0169 158.53 37.176 159.421 37.176ZM158.307 32.7373C158.922 33.3843 159.771 33.7078 160.852 33.7078C161.892 33.7078 162.719 33.3896 163.334 32.7532C163.949 32.1169 164.257 31.279 164.257 30.2396V25.9759C164.257 24.9153 163.944 24.0668 163.318 23.4305C162.693 22.7941 161.871 22.4759 160.852 22.4759C159.771 22.4759 158.922 22.7888 158.307 23.4146C157.692 24.0403 157.384 24.8941 157.384 25.9759V30.1441C157.384 31.226 157.692 32.0904 158.307 32.7373ZM180.102 37.1761C181.036 37.1761 181.911 37.0647 182.727 36.842C183.544 36.6192 184.276 36.3011 184.923 35.8874C185.57 35.4738 186.116 34.97 186.562 34.376C187.007 33.7821 187.325 33.1245 187.516 32.4033H183.602C183.348 32.9124 182.918 33.2995 182.314 33.5647C181.709 33.8298 180.972 33.9624 180.102 33.9624C178.957 33.9624 178.061 33.6336 177.414 32.976C176.767 32.3185 176.443 31.4063 176.443 30.2397V29.0942H187.675V25.9124C187.675 24.873 187.495 23.929 187.134 23.0806C186.774 22.2321 186.265 21.5109 185.607 20.9169C184.949 20.323 184.154 19.8616 183.221 19.5328C182.287 19.204 181.248 19.0396 180.102 19.0396C178.957 19.0396 177.912 19.1987 176.968 19.5169C176.024 19.8351 175.224 20.2912 174.566 20.8851C173.908 21.479 173.399 22.2003 173.039 23.0487C172.678 23.8972 172.498 24.8412 172.498 25.8806V30.3033C172.498 31.3427 172.678 32.2866 173.039 33.1351C173.399 33.9836 173.908 34.7048 174.566 35.2988C175.224 35.8927 176.024 36.3541 176.968 36.6829C177.912 37.0117 178.957 37.1761 180.102 37.1761ZM176.443 26.4215H183.762V25.9124C183.762 24.7457 183.443 23.8389 182.807 23.1919C182.171 22.545 181.269 22.2215 180.102 22.2215C178.957 22.2215 178.061 22.545 177.414 23.1919C176.767 23.8389 176.443 24.7351 176.443 25.8806V26.4215Z" fill="#F1F5F9"/>
</svg>
