<svg width="132" height="52" viewBox="0 0 132 52" fill="none" xmlns="http://www.w3.org/2000/svg">
<rect y="33.3375" width="16.7628" height="16.7628" transform="rotate(-45 0 33.3375)" fill="#1CE783"/>
<rect x="13.4335" y="19.9039" width="16.7628" height="16.7628" transform="rotate(-45 13.4335 19.9039)" fill="#1CE783"/>
<rect x="26.867" y="33.3375" width="16.7628" height="16.7628" transform="rotate(-45 26.867 33.3375)" fill="#1CE783"/>
<path d="M60.0303 31.3401H64.5819C64.7437 32.8573 65.8361 33.6159 67.8591 33.6159C68.8705 33.6159 69.6392 33.4035 70.1652 32.9787C70.6911 32.5337 70.9541 31.947 70.9541 31.2188C70.9541 30.5714 70.7417 30.0151 70.3169 29.5499C69.9123 29.0846 69.3459 28.771 68.6176 28.6092L66.3115 28.0933C64.329 27.6483 62.822 26.8594 61.7903 25.7265C60.7788 24.5735 60.2731 23.1068 60.2731 21.3267C60.2731 20.3961 60.445 19.5465 60.7889 18.7778C61.1531 18.0091 61.6588 17.3516 62.3061 16.8054C62.9535 16.2592 63.7323 15.8344 64.6426 15.531C65.5731 15.2275 66.615 15.0758 67.768 15.0758C69.9325 15.0758 71.6622 15.6119 72.9568 16.6841C74.2717 17.7562 75 19.2431 75.1416 21.1446H70.59C70.5091 20.477 70.2056 19.9612 69.6797 19.5971C69.174 19.2127 68.4963 19.0205 67.6466 19.0205C66.7566 19.0205 66.0586 19.2329 65.5529 19.6577C65.0674 20.0826 64.8247 20.6186 64.8247 21.266C64.8247 21.8324 65.0168 22.328 65.4012 22.7528C65.7856 23.1574 66.3419 23.4406 67.0701 23.6025L69.4976 24.1486C71.4599 24.5937 72.9467 25.4029 73.9582 26.5762C74.9899 27.7292 75.5057 29.206 75.5057 31.0064C75.5057 31.9774 75.3236 32.8675 74.9595 33.6766C74.5954 34.4656 74.0694 35.1534 73.3816 35.74C72.7141 36.3064 71.9049 36.7515 70.9541 37.0751C70.0034 37.3988 68.9413 37.5606 67.768 37.5606C66.6352 37.5606 65.6035 37.419 64.6729 37.1358C63.7424 36.8324 62.9433 36.4177 62.2758 35.8917C61.6082 35.3455 61.0823 34.6881 60.6979 33.9194C60.3135 33.1507 60.091 32.2909 60.0303 31.3401ZM78.771 20.5681H83.1709V23.4507H83.4743C83.6361 22.4595 84.0913 21.6807 84.8398 21.1143C85.6085 20.5478 86.5896 20.2646 87.7831 20.2646C88.6732 20.2646 89.4723 20.4163 90.1803 20.7198C90.8883 21.0232 91.4952 21.4582 92.0009 22.0246C92.5269 22.591 92.9214 23.2788 93.1843 24.088C93.4675 24.8971 93.6092 25.7973 93.6092 26.7886V30.885C93.6092 31.9167 93.4675 32.8472 93.1843 33.6766C92.9214 34.4858 92.5269 35.1837 92.0009 35.7704C91.4952 36.3368 90.8883 36.7818 90.1803 37.1055C89.4723 37.4089 88.6732 37.5606 87.7831 37.5606C86.5896 37.5606 85.6085 37.2774 84.8398 36.711C84.0913 36.1446 83.6361 35.3557 83.4743 34.3442H83.1709C83.1911 34.506 83.2214 34.8701 83.2619 35.4366C83.3023 36.003 83.3226 36.6099 83.3226 37.2572V42.4157H78.771V20.5681ZM83.3226 26.9403V30.885C83.3226 31.6739 83.5754 32.3213 84.0812 32.827C84.5869 33.3327 85.2949 33.5856 86.2052 33.5856C87.1156 33.5856 87.8135 33.3226 88.299 32.7967C88.8047 32.2707 89.0576 31.5829 89.0576 30.7333V26.9403C89.0576 26.0907 88.7946 25.4231 88.2686 24.9376C87.7629 24.4521 87.0751 24.2093 86.2052 24.2093C85.3354 24.2093 84.6375 24.4622 84.1115 24.9679C83.5856 25.4534 83.3226 26.1109 83.3226 26.9403ZM97.3296 33.1304H103.247V24.6645H98.0882V20.5681H107.495V33.1304H112.198V37.2572H97.3296V33.1304ZM102.336 16.1682C102.336 15.5209 102.539 15.005 102.943 14.6207C103.368 14.2363 103.924 14.0441 104.612 14.0441H105.522C106.21 14.0441 106.756 14.2363 107.161 14.6207C107.586 15.005 107.798 15.5209 107.798 16.1682C107.798 16.8155 107.586 17.3314 107.161 17.7157C106.756 18.1001 106.2 18.2923 105.492 18.2923H104.612C103.924 18.2923 103.368 18.1001 102.943 17.7157C102.539 17.3314 102.336 16.8155 102.336 16.1682ZM115.099 20.5681H119.408V23.4507H119.712C119.853 22.419 120.298 21.6301 121.047 21.0839C121.795 20.5377 122.776 20.2646 123.99 20.2646C125.709 20.2646 127.055 20.8209 128.026 21.9335C128.997 23.0259 129.482 24.5431 129.482 26.4851V37.2572H124.931V26.9403C124.931 26.0907 124.688 25.4231 124.202 24.9376C123.737 24.4521 123.1 24.2093 122.291 24.2093C121.482 24.2093 120.834 24.4521 120.349 24.9376C119.883 25.4231 119.651 26.0907 119.651 26.9403V37.2572H115.099V20.5681Z" fill="white"/>
</svg>
