<svg width="56" height="56" viewBox="0 0 56 56" fill="none" xmlns="http://www.w3.org/2000/svg">
<path fill-rule="evenodd" clip-rule="evenodd" d="M28 10.5C20.5333 10.5 15.8667 14.2333 14 21.7C16.8 17.9667 20.0667 16.5667 23.8 17.5C25.9301 18.032 27.4524 19.5782 29.1376 21.2883C31.8827 24.0748 35.0601 27.3 42 27.3C49.4667 27.3 54.1333 23.5667 56 16.1C53.2 19.8333 49.9333 21.2333 46.2 20.3C44.0699 19.768 42.5476 18.2218 40.8624 16.5117C38.1173 13.7252 34.9398 10.5 28 10.5ZM14 27.3C6.53333 27.3 1.86667 31.0333 0 38.5C2.8 34.7667 6.06667 33.3667 9.8 34.3C11.9301 34.8331 13.4524 36.3782 15.1376 38.0883C17.8827 40.8748 21.0601 44.1 28 44.1C35.4667 44.1 40.1333 40.3667 42 32.9C39.2 36.6334 35.9333 38.0334 32.2 37.1C30.0699 36.568 28.5476 35.0218 26.8624 33.3117C24.1173 30.5252 20.9399 27.3 14 27.3Z" fill="#06B6D4"/>
</svg>
