<svg width="1000" height="164" viewBox="0 0 1000 164" fill="none" xmlns="http://www.w3.org/2000/svg">
<path d="M111.617 145.45C111.617 146.01 112.065 146.515 112.681 146.515H116.322C116.882 146.515 117.386 146.01 117.386 145.45V132.288H125.508C132.341 132.288 137.998 126.631 137.998 119.686C137.998 112.909 132.341 107.308 125.452 107.308H112.681C112.065 107.308 111.617 107.812 111.617 108.372V145.45ZM117.386 126.799V112.909H125.115C128.98 112.909 132.229 115.821 132.229 119.63C132.229 123.663 128.98 126.799 125.115 126.799H117.386Z" fill="black"/>
<path d="M139.432 135.313C139.432 141.754 143.913 147.075 150.69 147.075C154.443 147.075 157.355 145.674 158.98 144.274C159.652 143.714 159.484 143.266 159.092 142.818L157.523 140.69C157.075 140.13 156.683 140.354 156.011 140.746C154.891 141.474 153.043 142.37 151.026 142.37C147.386 142.37 144.753 139.401 144.585 136.377H159.82C160.324 136.377 160.772 135.985 160.828 135.425C160.884 135.033 160.94 134.305 160.94 133.912C160.94 127.919 156.459 123.551 150.634 123.551C143.913 123.551 139.432 128.984 139.432 135.313ZM144.865 132.848C145.201 130.048 147.554 127.863 150.578 127.863C153.323 127.863 155.563 130.16 155.731 132.848H144.865Z" fill="black"/>
<path d="M166.327 145.45C166.327 146.01 166.831 146.515 167.391 146.515H170.079C170.975 146.515 171.591 146.403 171.591 145.45V131.224C171.815 130.832 173.384 128.48 176.632 128.48C177.36 128.48 178.201 128.704 178.537 128.872C179.041 129.096 179.601 128.984 179.881 128.368L181.225 125.623C181.841 124.111 179.265 123.551 177.136 123.551C173.048 123.551 170.975 126.239 170.583 126.799L169.967 124.895C169.855 124.447 169.407 124.111 169.015 124.111H167.391C166.831 124.111 166.327 124.615 166.327 125.175V145.45Z" fill="black"/>
<path d="M184.134 144.778C185.31 145.73 187.775 147.075 191.527 147.075C196.512 147.075 199.817 143.994 199.817 140.522C199.817 136.321 196.456 134.585 192.367 132.792C190.183 131.84 188.783 131.224 188.783 129.768C188.783 128.928 189.399 128.087 191.303 128.087C193.432 128.087 195.896 129.264 195.896 129.264C196.344 129.488 197.072 129.32 197.352 128.816L198.36 126.911C198.696 126.351 198.416 125.623 197.912 125.287C196.792 124.559 194.44 123.551 191.303 123.551C185.926 123.551 183.63 126.911 183.63 129.712C183.63 133.408 186.542 135.537 190.015 137.049C193.096 138.449 194.328 139.177 194.328 140.69C194.328 141.922 193.264 142.594 191.583 142.594C188.839 142.594 186.374 141.138 186.374 141.138C185.814 140.802 185.198 140.97 184.974 141.418L183.798 143.602C183.574 144.05 183.798 144.554 184.134 144.778Z" fill="black"/>
<path d="M203.536 135.257C203.536 141.698 208.576 147.075 214.849 147.075C221.122 147.075 226.163 141.698 226.163 135.257C226.163 128.928 221.122 123.551 214.849 123.551C208.576 123.551 203.536 128.928 203.536 135.257ZM208.52 135.257C208.52 131.504 211.321 128.424 214.849 128.424C218.378 128.424 221.178 131.504 221.178 135.257C221.178 139.121 218.378 142.258 214.849 142.258C211.321 142.258 208.52 139.121 208.52 135.257Z" fill="black"/>
<path d="M231.744 145.45C231.744 146.01 232.248 146.515 232.808 146.515H235.72C236.673 146.515 237.009 146.179 237.009 145.45V131.784C237.289 131 239.697 128.424 243.226 128.424C246.138 128.424 247.874 130.384 247.874 133.968V145.45C247.874 146.01 248.322 146.515 248.939 146.515H252.131C252.691 146.515 253.195 146.01 253.195 145.45V134.193C253.195 128.368 250.675 123.551 243.842 123.551C239.361 123.551 236.392 126.239 236 126.687L235.328 124.783C235.216 124.391 234.88 124.111 234.432 124.111H232.808C232.248 124.111 231.744 124.615 231.744 125.175V145.45Z" fill="black"/>
<path d="M258.562 139.569C258.562 144.218 261.586 147.075 265.787 147.075C269.259 147.075 271.444 145.394 272.676 144.218L273.236 145.73C273.46 146.291 273.684 146.515 274.188 146.515H275.757C276.317 146.515 276.821 146.01 276.821 145.45V133.52C276.821 127.919 276.149 123.551 268.979 123.551C264.835 123.551 261.642 124.671 261.25 124.839C260.746 125.007 260.354 125.399 260.522 126.127L260.97 128.2C261.138 128.816 261.53 129.264 262.202 129.096C263.378 128.76 265.899 128.087 268.475 128.087C271.332 128.087 272.004 129.488 271.948 133.016C271.948 133.016 269.876 132.344 267.523 132.344C261.81 132.344 258.562 135.481 258.562 139.569ZM263.434 139.513C263.434 137.217 265.283 135.817 267.971 135.817C269.988 135.817 271.556 136.489 271.892 136.713V140.298C271.22 141.418 269.091 143.098 266.851 143.098C264.779 143.098 263.434 141.53 263.434 139.513Z" fill="black"/>
<path d="M283.87 145.45C283.87 146.01 284.374 146.515 284.934 146.515H288.126C288.686 146.515 289.19 146.01 289.19 145.45V108.372C289.19 107.812 288.686 107.308 288.126 107.308H284.934C284.374 107.308 283.87 107.812 283.87 108.372V145.45Z" fill="black"/>
<path d="M310.493 145.45C310.493 146.01 310.997 146.515 311.557 146.515H314.357C315.03 146.515 315.926 146.291 315.926 145.45V128.76H326.624V145.45C326.624 146.01 327.128 146.515 327.688 146.515H330.88C331.44 146.515 331.944 146.01 331.944 145.45V125.175C331.944 124.615 331.44 124.111 330.88 124.111H315.926V117.166C315.926 113.301 318.278 111.677 320.574 111.677C323.039 111.677 325.895 113.189 326.399 113.469C327.016 113.805 327.52 113.861 327.856 113.189L329.256 110.669C329.536 110.221 329.424 109.548 328.976 109.268C327.8 108.54 324.327 106.748 320.574 106.748C315.03 106.748 310.493 110.501 310.493 117.166V124.111H307.86C307.244 124.111 306.796 124.559 306.796 125.175V127.695C306.796 128.256 307.244 128.76 307.86 128.76H310.493V145.45Z" fill="black"/>
<path d="M339.223 145.45C339.223 146.01 339.727 146.515 340.287 146.515H343.199C344.151 146.515 344.487 146.179 344.487 145.45V131.784C344.767 131 347.176 128.424 350.704 128.424C353.617 128.424 355.353 130.384 355.353 133.968V145.45C355.353 146.01 355.801 146.515 356.417 146.515H359.61C360.17 146.515 360.674 146.01 360.674 145.45V134.193C360.674 128.368 358.154 123.551 351.321 123.551C346.84 123.551 343.871 126.239 343.479 126.687L342.807 124.783C342.695 124.391 342.359 124.111 341.911 124.111H340.287C339.727 124.111 339.223 124.615 339.223 125.175V145.45Z" fill="black"/>
<path d="M366.041 139.569C366.041 144.218 369.065 147.075 373.266 147.075C376.738 147.075 378.923 145.394 380.155 144.218L380.715 145.73C380.939 146.291 381.163 146.515 381.667 146.515H383.235C383.796 146.515 384.3 146.01 384.3 145.45V133.52C384.3 127.919 383.627 123.551 376.458 123.551C372.314 123.551 369.121 124.671 368.729 124.839C368.225 125.007 367.833 125.399 368.001 126.127L368.449 128.2C368.617 128.816 369.009 129.264 369.681 129.096C370.857 128.76 373.378 128.087 375.954 128.087C378.811 128.087 379.483 129.488 379.427 133.016C379.427 133.016 377.354 132.344 375.002 132.344C369.289 132.344 366.041 135.481 366.041 139.569ZM370.913 139.513C370.913 137.217 372.762 135.817 375.45 135.817C377.466 135.817 379.035 136.489 379.371 136.713V140.298C378.699 141.418 376.57 143.098 374.33 143.098C372.258 143.098 370.913 141.53 370.913 139.513Z" fill="black"/>
<path d="M391.348 145.45C391.348 146.01 391.853 146.515 392.413 146.515H395.325C396.277 146.515 396.613 146.179 396.613 145.45V131.784C396.893 131 399.302 128.424 402.83 128.424C405.743 128.424 407.479 130.384 407.479 133.968V145.45C407.479 146.01 407.927 146.515 408.543 146.515H411.736C412.296 146.515 412.8 146.01 412.8 145.45V134.193C412.8 128.368 410.28 123.551 403.446 123.551C398.966 123.551 395.997 126.239 395.605 126.687L394.933 124.783C394.821 124.391 394.485 124.111 394.037 124.111H392.413C391.853 124.111 391.348 124.615 391.348 125.175V145.45Z" fill="black"/>
<path d="M418.11 135.369C418.11 142.09 423.543 147.075 429.816 147.075C433.681 147.075 436.705 145.226 438.498 142.37C438.89 141.81 438.666 141.25 438.106 140.802L436.593 139.569C436.089 139.177 435.585 139.177 435.081 139.681C433.905 140.802 432.729 142.258 429.872 142.258C426.232 142.258 423.431 139.177 423.431 135.313C423.431 131.504 426.288 128.424 429.928 128.424C431.777 128.424 433.401 129.432 434.409 130.552C434.857 130.944 435.249 131.392 435.921 130.776L437.77 129.096C438.274 128.704 438.386 128.031 437.994 127.527C435.921 124.951 433.289 123.551 429.872 123.551C423.655 123.551 418.11 128.76 418.11 135.369Z" fill="black"/>
<path d="M442.452 135.313C442.452 141.754 446.932 147.075 453.71 147.075C457.462 147.075 460.375 145.674 461.999 144.274C462.671 143.714 462.503 143.266 462.111 142.818L460.543 140.69C460.095 140.13 459.703 140.354 459.03 140.746C457.91 141.474 456.062 142.37 454.046 142.37C450.405 142.37 447.773 139.401 447.605 136.377H462.839C463.343 136.377 463.791 135.985 463.847 135.425C463.903 135.033 463.959 134.305 463.959 133.912C463.959 127.919 459.479 123.551 453.654 123.551C446.932 123.551 442.452 128.984 442.452 135.313ZM447.885 132.848C448.221 130.048 450.573 127.863 453.598 127.863C456.342 127.863 458.582 130.16 458.75 132.848H447.885Z" fill="black"/>
<path d="M480.644 144.778C481.821 145.73 484.285 147.075 488.038 147.075C493.022 147.075 496.327 143.994 496.327 140.522C496.327 136.321 492.966 134.585 488.878 132.792C486.693 131.84 485.293 131.224 485.293 129.768C485.293 128.928 485.909 128.087 487.814 128.087C489.942 128.087 492.406 129.264 492.406 129.264C492.854 129.488 493.583 129.32 493.863 128.816L494.871 126.911C495.207 126.351 494.927 125.623 494.423 125.287C493.302 124.559 490.95 123.551 487.814 123.551C482.437 123.551 480.14 126.911 480.14 129.712C480.14 133.408 483.053 135.537 486.525 137.049C489.606 138.449 490.838 139.177 490.838 140.69C490.838 141.922 489.774 142.594 488.094 142.594C485.349 142.594 482.885 141.138 482.885 141.138C482.325 140.802 481.709 140.97 481.484 141.418L480.308 143.602C480.084 144.05 480.308 144.554 480.644 144.778Z" fill="black"/>
<path d="M501.726 145.45C501.726 146.01 502.23 146.515 502.79 146.515H505.983C506.711 146.515 507.103 146.066 507.103 145.45V131.952C507.383 131 509.736 128.424 513.152 128.424C516.065 128.424 517.913 130.44 517.913 134.08V145.45C517.913 146.01 518.361 146.515 518.977 146.515H522.114C522.674 146.515 523.178 146.01 523.178 145.45V134.193C523.178 128.087 520.153 123.551 513.824 123.551C510.24 123.551 507.663 125.567 507.103 125.959V108.372C507.103 107.812 506.599 107.308 506.039 107.308H502.79C502.23 107.308 501.726 107.812 501.726 108.372V145.45Z" fill="black"/>
<path d="M528.488 135.257C528.488 141.698 533.529 147.075 539.802 147.075C546.075 147.075 551.116 141.698 551.116 135.257C551.116 128.928 546.075 123.551 539.802 123.551C533.529 123.551 528.488 128.928 528.488 135.257ZM533.473 135.257C533.473 131.504 536.273 128.424 539.802 128.424C543.331 128.424 546.131 131.504 546.131 135.257C546.131 139.121 543.331 142.258 539.802 142.258C536.273 142.258 533.473 139.121 533.473 135.257Z" fill="black"/>
<path d="M556.36 136.489C556.36 142.314 558.713 147.075 565.434 147.075C569.97 147.075 572.323 144.442 572.827 143.994L573.387 145.618C573.555 146.123 573.835 146.515 574.395 146.515H575.963C576.524 146.515 577.028 146.01 577.028 145.45V125.175C577.028 124.615 576.524 124.111 575.963 124.111H573.051C572.267 124.111 571.819 124.279 571.819 125.175V138.561C571.651 139.569 569.578 142.258 566.274 142.258C563.417 142.258 561.681 140.298 561.681 136.657V125.175C561.681 124.615 561.177 124.111 560.617 124.111H557.424C556.864 124.111 556.36 124.615 556.36 125.175V136.489Z" fill="black"/>
<path d="M584.318 145.45C584.318 146.01 584.822 146.515 585.382 146.515H588.575C589.135 146.515 589.639 146.01 589.639 145.45V108.372C589.639 107.812 589.135 107.308 588.575 107.308H585.382C584.822 107.308 584.318 107.812 584.318 108.372V145.45Z" fill="black"/>
<path d="M595.274 135.313C595.274 141.754 599.811 147.075 605.748 147.075C610.173 147.075 612.861 143.938 612.861 143.938L613.309 145.562C613.477 146.123 613.813 146.515 614.317 146.515H615.997C616.558 146.515 617.062 146.01 617.062 145.45V108.372C617.062 107.812 616.558 107.308 615.997 107.308H612.749C612.189 107.308 611.685 107.812 611.685 108.372V124.783C611.181 124.615 609.164 123.551 606.308 123.551C600.091 123.551 595.274 128.76 595.274 135.313ZM600.483 135.313C600.483 131.504 603.115 128.424 606.868 128.424C609.78 128.424 611.741 129.768 611.741 129.768V138.897C611.461 139.513 609.836 142.258 606.42 142.258C602.835 142.258 600.483 139.065 600.483 135.313Z" fill="black"/>
<path d="M636.663 145.45C636.663 146.01 637.167 146.515 637.727 146.515H639.407C639.911 146.515 640.247 146.123 640.415 145.562L640.863 143.938C640.863 143.938 643.552 147.075 647.977 147.075C653.914 147.075 658.45 141.754 658.45 135.313C658.45 128.76 653.634 123.551 647.417 123.551C644.56 123.551 642.544 124.615 642.04 124.783V108.372C642.04 107.812 641.536 107.308 640.975 107.308H637.727C637.167 107.308 636.663 107.812 636.663 108.372V145.45ZM641.984 138.897V129.712C641.984 129.712 643.944 128.424 646.856 128.424C650.609 128.424 653.241 131.504 653.241 135.313C653.241 139.065 650.889 142.258 647.305 142.258C643.888 142.258 642.264 139.513 641.984 138.897Z" fill="black"/>
<path d="M662.496 135.313C662.496 141.754 666.977 147.075 673.754 147.075C677.507 147.075 680.419 145.674 682.043 144.274C682.716 143.714 682.547 143.266 682.155 142.818L680.587 140.69C680.139 140.13 679.747 140.354 679.075 140.746C677.955 141.474 676.106 142.37 674.09 142.37C670.449 142.37 667.817 139.401 667.649 136.377H682.884C683.388 136.377 683.836 135.985 683.892 135.425C683.948 135.033 684.004 134.305 684.004 133.912C684.004 127.919 679.523 123.551 673.698 123.551C666.977 123.551 662.496 128.984 662.496 135.313ZM667.929 132.848C668.265 130.048 670.617 127.863 673.642 127.863C676.386 127.863 678.627 130.16 678.795 132.848H667.929Z" fill="black"/>
<path d="M707.074 145.562C707.466 145.786 709.65 147.075 712.563 147.075C718.668 147.075 723.485 141.922 723.485 135.369C723.485 128.928 718.948 123.551 712.787 123.551C708.642 123.551 706.346 125.903 705.954 126.295L705.394 124.839C705.169 124.335 704.889 124.111 704.441 124.111H702.761C702.201 124.111 701.697 124.615 701.697 125.175V162.253C701.697 162.813 702.201 163.317 702.761 163.317H705.898C706.682 163.317 707.074 162.869 707.074 162.253V145.562ZM706.962 140.634V131.672C707.186 131 708.866 128.424 712.115 128.424C715.923 128.424 718.276 131.616 718.276 135.369C718.276 139.177 715.587 142.258 711.891 142.258C708.922 142.258 706.962 140.634 706.962 140.634Z" fill="black"/>
<path d="M727.53 135.313C727.53 141.754 732.011 147.075 738.788 147.075C742.541 147.075 745.453 145.674 747.078 144.274C747.75 143.714 747.582 143.266 747.19 142.818L745.621 140.69C745.173 140.13 744.781 140.354 744.109 140.746C742.989 141.474 741.141 142.37 739.124 142.37C735.484 142.37 732.851 139.401 732.683 136.377H747.918C748.422 136.377 748.87 135.985 748.926 135.425C748.982 135.033 749.038 134.305 749.038 133.912C749.038 127.919 744.557 123.551 738.732 123.551C732.011 123.551 727.53 128.984 727.53 135.313ZM732.963 132.848C733.299 130.048 735.652 127.863 738.676 127.863C741.421 127.863 743.661 130.16 743.829 132.848H732.963Z" fill="black"/>
<path d="M754.424 145.45C754.424 146.01 754.929 146.515 755.489 146.515H758.177C759.073 146.515 759.689 146.403 759.689 145.45V131.224C759.913 130.832 761.482 128.48 764.73 128.48C765.458 128.48 766.298 128.704 766.635 128.872C767.139 129.096 767.699 128.984 767.979 128.368L769.323 125.623C769.939 124.111 767.363 123.551 765.234 123.551C761.146 123.551 759.073 126.239 758.681 126.799L758.065 124.895C757.953 124.447 757.505 124.111 757.113 124.111H755.489C754.929 124.111 754.424 124.615 754.424 125.175V145.45Z" fill="black"/>
<path d="M772.232 144.778C773.408 145.73 775.873 147.075 779.625 147.075C784.61 147.075 787.915 143.994 787.915 140.522C787.915 136.321 784.554 134.585 780.465 132.792C778.281 131.84 776.881 131.224 776.881 129.768C776.881 128.928 777.497 128.087 779.401 128.087C781.53 128.087 783.994 129.264 783.994 129.264C784.442 129.488 785.17 129.32 785.45 128.816L786.458 126.911C786.794 126.351 786.514 125.623 786.01 125.287C784.89 124.559 782.538 123.551 779.401 123.551C774.024 123.551 771.728 126.911 771.728 129.712C771.728 133.408 774.64 135.537 778.113 137.049C781.193 138.449 782.426 139.177 782.426 140.69C782.426 141.922 781.362 142.594 779.681 142.594C776.937 142.594 774.472 141.138 774.472 141.138C773.912 140.802 773.296 140.97 773.072 141.418L771.896 143.602C771.672 144.05 771.896 144.554 772.232 144.778Z" fill="black"/>
<path d="M791.634 135.257C791.634 141.698 796.674 147.075 802.947 147.075C809.221 147.075 814.261 141.698 814.261 135.257C814.261 128.928 809.221 123.551 802.947 123.551C796.674 123.551 791.634 128.928 791.634 135.257ZM796.618 135.257C796.618 131.504 799.419 128.424 802.947 128.424C806.476 128.424 809.276 131.504 809.276 135.257C809.276 139.121 806.476 142.258 802.947 142.258C799.419 142.258 796.618 139.121 796.618 135.257Z" fill="black"/>
<path d="M819.842 145.45C819.842 146.01 820.346 146.515 820.906 146.515H823.818C824.77 146.515 825.107 146.179 825.107 145.45V131.784C825.387 131 827.795 128.424 831.324 128.424C834.236 128.424 835.972 130.384 835.972 133.968V145.45C835.972 146.01 836.42 146.515 837.036 146.515H840.229C840.789 146.515 841.293 146.01 841.293 145.45V134.193C841.293 128.368 838.773 123.551 831.94 123.551C827.459 123.551 824.49 126.239 824.098 126.687L823.426 124.783C823.314 124.391 822.978 124.111 822.53 124.111H820.906C820.346 124.111 819.842 124.615 819.842 125.175V145.45Z" fill="black"/>
<path d="M846.66 139.569C846.66 144.218 849.684 147.075 853.885 147.075C857.357 147.075 859.542 145.394 860.774 144.218L861.334 145.73C861.558 146.291 861.782 146.515 862.286 146.515H863.854C864.415 146.515 864.919 146.01 864.919 145.45V133.52C864.919 127.919 864.247 123.551 857.077 123.551C852.933 123.551 849.74 124.671 849.348 124.839C848.844 125.007 848.452 125.399 848.62 126.127L849.068 128.2C849.236 128.816 849.628 129.264 850.3 129.096C851.476 128.76 853.997 128.087 856.573 128.087C859.43 128.087 860.102 129.488 860.046 133.016C860.046 133.016 857.974 132.344 855.621 132.344C849.908 132.344 846.66 135.481 846.66 139.569ZM851.532 139.513C851.532 137.217 853.381 135.817 856.069 135.817C858.086 135.817 859.654 136.489 859.99 136.713V140.298C859.318 141.418 857.189 143.098 854.949 143.098C852.877 143.098 851.532 141.53 851.532 139.513Z" fill="black"/>
<path d="M871.968 145.45C871.968 146.01 872.472 146.515 873.032 146.515H876.224C876.784 146.515 877.288 146.01 877.288 145.45V108.372C877.288 107.812 876.784 107.308 876.224 107.308H873.032C872.472 107.308 871.968 107.812 871.968 108.372V145.45Z" fill="black"/>
<path d="M883.428 143.21C883.428 145.338 885.164 147.075 887.292 147.075C889.477 147.075 891.213 145.338 891.213 143.21C891.213 141.026 889.477 139.289 887.292 139.289C885.164 139.289 883.428 141.026 883.428 143.21Z" fill="black"/>
<path d="M698.056 152.116H880.929V154.916H698.056V152.116Z" fill="black"/>
<path d="M598.58 63.3233H615.163V42.7036H620.89L631.627 63.3233H649.641L637.234 40.0193C643.736 36.8166 647.613 30.7466 647.613 22.0838C647.613 8.78473 638.517 0.854072 624.946 0.854072H598.58V63.3233ZM615.163 29.5265V14.3972H621.009C626.825 14.3972 630.315 16.7154 630.315 22.0838C630.315 27.4218 626.825 29.5265 621.009 29.5265H615.163Z" fill="#1E3A8A"/>
<path d="M663.081 63.3233H706.984V49.6581H679.664V38.9213H704.836V25.2561H679.664V14.5192H707.103V0.854072H663.081V63.3233Z" fill="#1E3A8A"/>
<path d="M723.726 63.3233H767.629V49.6581H740.309V38.9213H765.482V25.2561H740.309V14.5192H767.748V0.854072H723.726V63.3233Z" fill="#1E3A8A"/>
<path d="M807.874 63.3233C826.485 63.3233 838.296 51.6103 838.296 32.0887C838.296 12.567 826.485 0.854072 807.635 0.854072H784.371V63.3233H807.874ZM800.954 48.9261V15.2513H806.8C816.344 15.2513 821.594 19.0336 821.594 32.0887C821.594 45.1438 816.344 48.9261 807.277 48.9261H800.954Z" fill="#1E3A8A"/>
<path d="M913.541 32.0887C913.541 11.2249 900.418 0 883.835 0C867.132 0 854.129 11.2249 854.129 32.0887C854.129 52.8304 867.132 64.1774 883.835 64.1774C900.418 64.1774 913.541 52.9524 913.541 32.0887ZM896.481 32.0887C896.481 43.3136 892.066 49.4141 883.835 49.4141C875.603 49.4141 871.189 43.3136 871.189 32.0887C871.189 20.8637 875.603 14.7632 883.835 14.7632C892.066 14.7632 896.481 20.8637 896.481 32.0887Z" fill="#1E3A8A"/>
<path d="M929.612 0.854072V63.3233H945.837V26.9643H946.314L959.915 62.8352H969.698L983.298 27.2083H983.775V63.3233H1000V0.854072H979.361L965.164 36.237H964.448L950.251 0.854072H929.612Z" fill="#1E3A8A"/>
<path d="M541.424 62.7398H558.006V38.3378H581.747V24.6727H558.006H541.424V62.7398Z" fill="#1E3A8A"/>
<path d="M541.424 62.7398H558.006V38.3378H581.747V24.6727H558.006H541.424V62.7398Z" fill="#1E3A8A"/>
<path d="M541.424 13.936H558.006H584.372V0.270905H541.424V13.936Z" fill="#1E3A8A"/>
<path d="M541.424 13.936H558.006H584.372V0.270905H541.424V13.936Z" fill="#1E3A8A"/>
<path d="M74.0296 0.854072H57.4467V63.3233H74.0296V0.854072Z" fill="#0052FF"/>
<path d="M143.138 0.854072H126.555V33.5528H126.078L104.365 0.854072H90.2874V63.3233H106.87V30.5025H107.228L129.299 63.3233H143.138V0.854072Z" fill="#0052FF"/>
<path d="M175.248 63.3233L178.767 51.3663H198.929L202.449 63.3233H220.344L200.182 0.854072H177.515L157.353 63.3233H175.248ZM182.525 38.6772L188.61 18.0575H189.087L195.171 38.6772H182.525Z" fill="#0052FF"/>
<path d="M287.476 0.854072H270.893V33.5528H270.416L248.703 0.854072H234.626V63.3233H251.209V30.5025H251.567L273.637 63.3233H287.476V0.854072Z" fill="#0052FF"/>
<path d="M360.745 24.28C359.433 8.78474 348.338 0 332.948 0C316.484 0 303.481 11.2249 303.481 32.0887C303.481 52.8609 316.127 64.1774 332.948 64.1774C350.843 64.1774 359.91 51.4883 360.745 40.8734L343.924 40.7514C343.089 46.0893 339.39 49.4141 333.306 49.4141C325.223 49.4141 320.541 43.5576 320.541 32.0887C320.541 21.2298 325.074 14.7632 333.425 14.7632C339.808 14.7632 343.447 18.6066 343.924 24.28H360.745Z" fill="#0052FF"/>
<path d="M393.251 0.854072H376.668V63.3233H393.251V0.854072Z" fill="#0052FF"/>
<path d="M425.375 63.3233L428.895 51.3663H449.057L452.576 63.3233H470.471L450.309 0.854072H427.642L407.48 63.3233H425.375ZM432.653 38.6772L438.737 18.0575H439.214L445.299 38.6772H432.653Z" fill="#0052FF"/>
<path d="M484.753 63.3233H526.032V49.6581H501.336V0.854072H484.753V63.3233Z" fill="#0052FF"/>
<path d="M0 62.7398H16.5829V38.3378H40.3239V24.6727H16.5829H0V62.7398Z" fill="#0052FF"/>
<path d="M0 62.7398H16.5829V38.3378H40.3239V24.6727H16.5829H0V62.7398Z" fill="#0052FF"/>
<path d="M0 13.936H16.5829H42.9485V0.270905H0V13.936Z" fill="#0052FF"/>
<path d="M0 13.936H16.5829H42.9485V0.270905H0V13.936Z" fill="#0052FF"/>
</svg>
