<svg width="1714" height="110" viewBox="0 0 1714 110" fill="none" xmlns="http://www.w3.org/2000/svg">
<path d="M1025.97 108.536H1054.39V73.1939H1064.21L1082.61 108.536H1113.49L1092.22 68.5931C1103.36 63.1036 1110.01 52.6996 1110.01 37.8517C1110.01 15.057 1094.42 1.46388 1071.16 1.46388H1025.97V108.536ZM1054.39 50.6084V24.6768H1064.41C1074.38 24.6768 1080.36 28.6502 1080.36 37.8517C1080.36 47.0009 1074.38 50.6084 1064.41 50.6084H1054.39Z" fill="#1E3A8A"/>
<path d="M1136.52 108.536H1211.77V85.1141H1164.94V66.711H1208.09V43.289H1164.94V24.8859H1211.97V1.46388H1136.52V108.536Z" fill="#1E3A8A"/>
<path d="M1240.47 108.536H1315.72V85.1141H1268.89V66.711H1312.04V43.289H1268.89V24.8859H1315.92V1.46388H1240.47V108.536Z" fill="#1E3A8A"/>
<path d="M1384.7 108.536C1416.6 108.536 1436.84 88.4601 1436.84 55C1436.84 21.5399 1416.6 1.46388 1384.29 1.46388H1344.41V108.536H1384.7ZM1372.84 83.8593V26.1407H1382.86C1399.21 26.1407 1408.21 32.6236 1408.21 55C1408.21 77.3764 1399.21 83.8593 1383.67 83.8593H1372.84Z" fill="#1E3A8A"/>
<path d="M1565.81 55C1565.81 19.2395 1543.32 0 1514.89 0C1486.27 0 1463.98 19.2395 1463.98 55C1463.98 90.5513 1486.27 110 1514.89 110C1543.32 110 1565.81 90.7605 1565.81 55ZM1536.57 55C1536.57 74.2395 1529 84.6958 1514.89 84.6958C1500.78 84.6958 1493.22 74.2395 1493.22 55C1493.22 35.7605 1500.78 25.3042 1514.89 25.3042C1529 25.3042 1536.57 35.7605 1536.57 55Z" fill="#1E3A8A"/>
<path d="M1593.36 1.46388V108.536H1621.17V46.2167H1621.98L1645.29 107.7H1662.06L1685.37 46.635H1686.19V108.536H1714V1.46388H1678.62L1654.29 62.1103H1653.06L1628.73 1.46388H1593.36Z" fill="#1E3A8A"/>
<path d="M928 107.536H956.423V65.711H997.115V42.2889H956.423H928V107.536Z" fill="#1E3A8A"/>
<path d="M928 107.536H956.423V65.711H997.115V42.2889H956.423H928V107.536Z" fill="#1E3A8A"/>
<path d="M928 23.8859H956.423H1001.61V0.463867H928V23.8859Z" fill="#1E3A8A"/>
<path d="M928 23.8859H956.423H1001.61V0.463867H928V23.8859Z" fill="#1E3A8A"/>
<path d="M126.887 1.46388H98.4636V108.536H126.887V1.46388Z" fill="#0052FF"/>
<path d="M245.338 1.46388H216.915V57.5095H216.097L178.882 1.46388H154.753V108.536H183.176V52.2814H183.789L221.618 108.536H245.338V1.46388Z" fill="#0052FF"/>
<path d="M300.375 108.536L306.407 88.0418H340.965L346.997 108.536H377.669L343.112 1.46388H304.26L269.703 108.536H300.375ZM312.848 66.2928L323.277 30.9506H324.095L334.524 66.2928H312.848Z" fill="#0052FF"/>
<path d="M492.734 1.46388H464.311V57.5095H463.493L426.278 1.46388H402.149V108.536H430.572V52.2814H431.185L469.014 108.536H492.734V1.46388Z" fill="#0052FF"/>
<path d="M618.318 41.616C616.068 15.057 597.051 0 570.673 0C542.454 0 520.166 19.2395 520.166 55C520.166 90.6036 541.841 110 570.673 110C601.345 110 616.886 88.2509 618.318 70.057L589.485 69.8479C588.054 78.9971 581.715 84.6958 571.286 84.6958C557.433 84.6958 549.407 74.6578 549.407 55C549.407 36.3878 557.177 25.3042 571.491 25.3042C582.431 25.3042 588.668 31.8916 589.485 41.616H618.318Z" fill="#0052FF"/>
<path d="M674.031 1.46388H645.608V108.536H674.031V1.46388Z" fill="#0052FF"/>
<path d="M729.094 108.536L735.126 88.0418H769.683L775.716 108.536H806.388L771.83 1.46388H732.979L698.421 108.536H729.094ZM741.567 66.2928L751.996 30.9506H752.814L763.242 66.2928H741.567Z" fill="#0052FF"/>
<path d="M830.867 108.536H901.618V85.1141H859.29V1.46388H830.867V108.536Z" fill="#0052FF"/>
<path d="M0 107.536H28.4231V65.711H69.1152V42.2889H28.4231H0V107.536Z" fill="#0052FF"/>
<path d="M0 107.536H28.4231V65.711H69.1152V42.2889H28.4231H0V107.536Z" fill="#0052FF"/>
<path d="M0 23.8859H28.4231H73.6138V0.463867H0V23.8859Z" fill="#0052FF"/>
<path d="M0 23.8859H28.4231H73.6138V0.463867H0V23.8859Z" fill="#0052FF"/>
</svg>
